<svg width="495" height="660" viewBox="0 0 495 660" fill="none" xmlns="http://www.w3.org/2000/svg">
<path d="M495 660H-1.01328e-06V0H495V660Z" fill="url(#paint0_linear_2005_1798)"/>
<path d="M246 365H104C101.239 365 99 367.239 99 370V511" stroke="#4B497E" stroke-dasharray="4 4"/>
<path d="M250 365H305C307.761 365 310 362.761 310 360V293" stroke="#4B497E" stroke-dasharray="4 4"/>
<path d="M457 144H315C312.239 144 310 146.239 310 149V290" stroke="#4B497E" stroke-dasharray="4 4"/>
<path d="M55.2539 71.2812C53.9492 71.2812 52.8164 71.0781 51.8555 70.6719C50.9023 70.2578 50.1562 69.668 49.6172 68.9023C49.0781 68.1367 48.7773 67.2266 48.7148 66.1719H51.3633C51.418 66.8047 51.6211 67.332 51.9727 67.7539C52.332 68.168 52.7969 68.4766 53.3672 68.6797C53.9375 68.8828 54.5625 68.9844 55.2422 68.9844C55.9844 68.9844 56.6484 68.8672 57.2344 68.6328C57.8203 68.3984 58.2773 68.0703 58.6055 67.6484C58.9414 67.2188 59.1094 66.7188 59.1094 66.1484C59.1094 65.6328 58.9609 65.2109 58.6641 64.8828C58.375 64.5547 57.9805 64.2852 57.4805 64.0742C56.9805 63.8555 56.418 63.6641 55.793 63.5L53.7422 62.9375C52.3359 62.5625 51.2266 62.0039 50.4141 61.2617C49.6016 60.5117 49.1953 59.5312 49.1953 58.3203C49.1953 57.3125 49.4648 56.4336 50.0039 55.6836C50.5508 54.9336 51.2891 54.3516 52.2188 53.9375C53.1562 53.5156 54.207 53.3047 55.3711 53.3047C56.5586 53.3047 57.6016 53.5156 58.5 53.9375C59.4062 54.3516 60.1211 54.9219 60.6445 55.6484C61.1758 56.3672 61.4531 57.1914 61.4766 58.1211H58.9219C58.8281 57.3164 58.4531 56.6914 57.7969 56.2461C57.1484 55.8008 56.3203 55.5781 55.3125 55.5781C54.6094 55.5781 53.9922 55.6914 53.4609 55.918C52.9375 56.1367 52.5312 56.4414 52.2422 56.832C51.9609 57.2227 51.8203 57.6719 51.8203 58.1797C51.8203 58.7266 51.9883 59.1719 52.3242 59.5156C52.668 59.8594 53.082 60.1328 53.5664 60.3359C54.0586 60.5312 54.5312 60.6914 54.9844 60.8164L56.6836 61.2734C57.2383 61.4141 57.8086 61.6016 58.3945 61.8359C58.9805 62.0703 59.5234 62.3789 60.0234 62.7617C60.5312 63.1367 60.9375 63.6055 61.2422 64.168C61.5547 64.7227 61.7109 65.3945 61.7109 66.1836C61.7109 67.1602 61.457 68.0352 60.9492 68.8086C60.4414 69.5742 59.707 70.1797 58.7461 70.625C57.7852 71.0625 56.6211 71.2812 55.2539 71.2812ZM63.3202 71V57.8984H65.746V60.0547H65.9218C66.1952 59.3281 66.6406 58.7617 67.2577 58.3555C67.8827 57.9414 68.6249 57.7344 69.4843 57.7344C70.3593 57.7344 71.0898 57.9414 71.6757 58.3555C72.2695 58.7617 72.7109 59.3281 72.9999 60.0547H73.1406C73.4531 59.3438 73.9492 58.7812 74.6288 58.3672C75.3085 57.9453 76.1171 57.7344 77.0546 57.7344C78.2421 57.7344 79.2148 58.1094 79.9726 58.8594C80.7304 59.6016 81.1093 60.7227 81.1093 62.2227V71H78.5546V62.457C78.5546 61.5664 78.3124 60.9258 77.8281 60.5352C77.3437 60.1367 76.7656 59.9375 76.0937 59.9375C75.2656 59.9375 74.621 60.1953 74.1601 60.7109C73.707 61.2188 73.4804 61.8633 73.4804 62.6445V71H70.9257V62.293C70.9257 61.582 70.707 61.0117 70.2695 60.582C69.832 60.1523 69.2577 59.9375 68.5468 59.9375C68.0624 59.9375 67.6132 60.0664 67.1992 60.3242C66.7929 60.5742 66.4648 60.9258 66.2148 61.3789C65.9726 61.8242 65.8515 62.3398 65.8515 62.9258V71H63.3202ZM87.0077 71.2812C86.1796 71.2812 85.4296 71.1289 84.7577 70.8242C84.0858 70.5117 83.5546 70.0586 83.1639 69.4648C82.7733 68.8711 82.578 68.1484 82.578 67.2969C82.578 66.5547 82.7186 65.9492 82.9999 65.4805C83.2889 65.0039 83.6757 64.625 84.16 64.3438C84.6444 64.0625 85.1835 63.8516 85.7772 63.7109C86.371 63.5703 86.9803 63.4609 87.6053 63.3828C88.3944 63.2969 89.0311 63.2227 89.5155 63.1602C89.9999 63.0977 90.3514 63 90.5702 62.8672C90.7967 62.7266 90.91 62.5039 90.91 62.1992V62.1406C90.91 61.3984 90.6991 60.8242 90.2772 60.418C89.8632 60.0117 89.246 59.8086 88.4257 59.8086C87.5741 59.8086 86.8983 59.9961 86.3983 60.3711C85.9061 60.7383 85.5663 61.1562 85.3788 61.625L82.9764 61.0742C83.2655 60.2773 83.6835 59.6367 84.2303 59.1523C84.785 58.6602 85.4178 58.3008 86.1288 58.0742C86.8475 57.8477 87.5975 57.7344 88.3788 57.7344C88.9022 57.7344 89.4569 57.7969 90.0428 57.9219C90.6288 58.0391 91.1796 58.2617 91.6952 58.5898C92.2186 58.9102 92.6444 59.3711 92.9725 59.9727C93.3007 60.5742 93.4647 61.3516 93.4647 62.3047V71H90.9686V69.207H90.8749C90.7186 69.5273 90.4725 69.8477 90.1366 70.168C89.8085 70.4883 89.3866 70.7539 88.871 70.9648C88.3553 71.1758 87.7342 71.2812 87.0077 71.2812ZM87.5585 69.2422C88.2694 69.2422 88.8749 69.1055 89.3749 68.832C89.8749 68.5508 90.2577 68.1836 90.5233 67.7305C90.7889 67.2773 90.9217 66.7969 90.9217 66.2891V64.5898C90.828 64.6758 90.6522 64.7578 90.3944 64.8359C90.1366 64.9141 89.8436 64.9805 89.5155 65.0352C89.1874 65.0898 88.8671 65.1406 88.5546 65.1875C88.2421 65.2266 87.9803 65.2578 87.7694 65.2812C87.2772 65.3516 86.828 65.4609 86.4217 65.6094C86.0155 65.75 85.6874 65.9609 85.4374 66.2422C85.1952 66.5156 85.0741 66.8789 85.0741 67.332C85.0741 67.9648 85.3085 68.4414 85.7772 68.7617C86.246 69.082 86.8397 69.2422 87.5585 69.2422ZM95.5779 71V57.8984H98.0272V59.9961H98.1678C98.41 59.293 98.8318 58.7383 99.4334 58.332C100.043 57.918 100.73 57.7109 101.496 57.7109C101.652 57.7109 101.836 57.7188 102.047 57.7344C102.265 57.7422 102.441 57.7539 102.574 57.7695V60.207C102.472 60.1758 102.289 60.1445 102.023 60.1133C101.765 60.082 101.504 60.0664 101.238 60.0664C100.637 60.0664 100.097 60.1953 99.6209 60.4531C99.1522 60.7031 98.7811 61.0508 98.5076 61.4961C98.242 61.9336 98.1092 62.4414 98.1092 63.0195V71H95.5779ZM110.312 57.8984V59.9492H103.164V57.8984H110.312ZM105.074 54.7812H107.617V67.1562C107.617 67.7578 107.742 68.1992 107.992 68.4805C108.242 68.7539 108.644 68.8906 109.199 68.8906C109.332 68.8906 109.472 68.8828 109.621 68.8672C109.777 68.8516 109.933 68.8281 110.09 68.7969L110.57 70.9062C110.312 70.9922 110.031 71.0586 109.726 71.1055C109.422 71.1523 109.117 71.1758 108.812 71.1758C107.679 71.1758 106.773 70.8594 106.093 70.2266C105.414 69.5859 105.074 68.7344 105.074 67.6719V54.7812ZM117.3 71.2695C116.019 71.2695 114.91 70.9922 113.972 70.4375C113.035 69.8828 112.312 69.1016 111.804 68.0938C111.304 67.0781 111.054 65.8945 111.054 64.543C111.054 63.1992 111.3 62.0156 111.793 60.9922C112.293 59.9688 112.992 59.1719 113.89 58.6016C114.797 58.0234 115.859 57.7344 117.078 57.7344C117.82 57.7344 118.539 57.8555 119.234 58.0977C119.929 58.3398 120.554 58.7227 121.109 59.2461C121.664 59.7695 122.101 60.4492 122.422 61.2852C122.75 62.1211 122.914 63.1289 122.914 64.3086V65.2227H112.496V63.3125H121.601L120.418 63.9453C120.418 63.1406 120.293 62.4297 120.043 61.8125C119.793 61.1953 119.418 60.7148 118.918 60.3711C118.425 60.0195 117.812 59.8438 117.078 59.8438C116.343 59.8438 115.715 60.0195 115.191 60.3711C114.675 60.7227 114.281 61.1875 114.007 61.7656C113.734 62.3438 113.597 62.9766 113.597 63.6641V64.9648C113.597 65.8633 113.754 66.625 114.066 67.25C114.379 67.875 114.812 68.3516 115.367 68.6797C115.929 69.0078 116.582 69.1719 117.324 69.1719C117.808 69.1719 118.246 69.1016 118.636 68.9609C119.035 68.8203 119.379 68.6094 119.668 68.3281C119.957 68.0469 120.175 67.6992 120.324 67.2852L122.738 67.7422C122.543 68.4453 122.199 69.0625 121.707 69.5938C121.215 70.125 120.593 70.5391 119.843 70.8359C119.101 71.125 118.254 71.2695 117.3 71.2695ZM124.359 71V57.8984H126.808V59.9961H126.949C127.191 59.293 127.613 58.7383 128.214 58.332C128.824 57.918 129.511 57.7109 130.277 57.7109C130.433 57.7109 130.617 57.7188 130.828 57.7344C131.047 57.7422 131.222 57.7539 131.355 57.7695V60.207C131.254 60.1758 131.07 60.1445 130.804 60.1133C130.547 60.082 130.285 60.0664 130.019 60.0664C129.418 60.0664 128.879 60.1953 128.402 60.4531C127.933 60.7031 127.562 61.0508 127.289 61.4961C127.023 61.9336 126.89 62.4414 126.89 63.0195V71H124.359ZM138.933 71H136.132L142.414 53.5391H145.46L151.73 71H148.941L143.996 56.7148H143.855L138.933 71ZM139.402 64.168H148.46V66.3711H139.402V64.168ZM155.519 53.5391V71H152.882V53.5391H155.519ZM166.624 71.2812C165.796 71.2812 165.046 71.1289 164.374 70.8242C163.702 70.5117 163.171 70.0586 162.781 69.4648C162.39 68.8711 162.195 68.1484 162.195 67.2969C162.195 66.5547 162.335 65.9492 162.617 65.4805C162.906 65.0039 163.292 64.625 163.777 64.3438C164.261 64.0625 164.8 63.8516 165.394 63.7109C165.988 63.5703 166.597 63.4609 167.222 63.3828C168.011 63.2969 168.648 63.2227 169.132 63.1602C169.617 63.0977 169.968 63 170.187 62.8672C170.413 62.7266 170.527 62.5039 170.527 62.1992V62.1406C170.527 61.3984 170.316 60.8242 169.894 60.418C169.48 60.0117 168.863 59.8086 168.042 59.8086C167.191 59.8086 166.515 59.9961 166.015 60.3711C165.523 60.7383 165.183 61.1562 164.995 61.625L162.593 61.0742C162.882 60.2773 163.3 59.6367 163.847 59.1523C164.402 58.6602 165.034 58.3008 165.745 58.0742C166.464 57.8477 167.214 57.7344 167.995 57.7344C168.519 57.7344 169.074 57.7969 169.659 57.9219C170.245 58.0391 170.796 58.2617 171.312 58.5898C171.835 58.9102 172.261 59.3711 172.589 59.9727C172.917 60.5742 173.081 61.3516 173.081 62.3047V71H170.585V69.207H170.492C170.335 69.5273 170.089 69.8477 169.753 70.168C169.425 70.4883 169.003 70.7539 168.488 70.9648C167.972 71.1758 167.351 71.2812 166.624 71.2812ZM167.175 69.2422C167.886 69.2422 168.492 69.1055 168.992 68.832C169.492 68.5508 169.874 68.1836 170.14 67.7305C170.406 67.2773 170.538 66.7969 170.538 66.2891V64.5898C170.445 64.6758 170.269 64.7578 170.011 64.8359C169.753 64.9141 169.46 64.9805 169.132 65.0352C168.804 65.0898 168.484 65.1406 168.171 65.1875C167.859 65.2266 167.597 65.2578 167.386 65.2812C166.894 65.3516 166.445 65.4609 166.038 65.6094C165.632 65.75 165.304 65.9609 165.054 66.2422C164.812 66.5156 164.691 66.8789 164.691 67.332C164.691 67.9648 164.925 68.4414 165.394 68.7617C165.863 69.082 166.456 69.2422 167.175 69.2422ZM180.656 76.1797C179.093 76.1797 177.863 75.8867 176.964 75.3008C176.066 74.7148 175.445 74.0195 175.101 73.2148L177.281 72.3125C177.437 72.5625 177.644 72.8281 177.902 73.1094C178.167 73.3906 178.523 73.6289 178.968 73.8242C179.413 74.0195 179.988 74.1172 180.691 74.1172C181.652 74.1172 182.448 73.8828 183.081 73.4141C183.714 72.9531 184.031 72.2109 184.031 71.1875V68.6211H183.855C183.714 68.8945 183.499 69.2031 183.21 69.5469C182.921 69.8828 182.527 70.1758 182.027 70.4258C181.527 70.6758 180.874 70.8008 180.07 70.8008C179.038 70.8008 178.109 70.5586 177.281 70.0742C176.46 69.582 175.804 68.8633 175.312 67.918C174.827 66.9648 174.585 65.793 174.585 64.4023C174.585 63.0117 174.823 61.8203 175.3 60.8281C175.784 59.8281 176.441 59.0625 177.269 58.5312C178.097 58 179.038 57.7344 180.093 57.7344C180.906 57.7344 181.562 57.8711 182.062 58.1445C182.57 58.4102 182.964 58.7227 183.245 59.082C183.527 59.4414 183.745 59.7578 183.902 60.0312H184.089V57.8984H186.562V71.293C186.562 72.418 186.3 73.3398 185.777 74.0586C185.261 74.7773 184.558 75.3086 183.667 75.6523C182.777 76.0039 181.773 76.1797 180.656 76.1797ZM180.632 68.6797C181.734 68.6797 182.577 68.3008 183.163 67.543C183.757 66.7773 184.054 65.7188 184.054 64.3672C184.054 63.4844 183.925 62.7109 183.667 62.0469C183.409 61.375 183.027 60.8516 182.519 60.4766C182.011 60.0938 181.382 59.9023 180.632 59.9023C179.866 59.9023 179.226 60.1016 178.71 60.5C178.202 60.8906 177.82 61.4258 177.562 62.1055C177.304 62.7773 177.175 63.5312 177.175 64.3672C177.175 65.2188 177.304 65.9727 177.562 66.6289C177.82 67.2773 178.206 67.7812 178.722 68.1406C179.245 68.5 179.882 68.6797 180.632 68.6797ZM194.3 71.2695C193.019 71.2695 191.909 70.9922 190.972 70.4375C190.034 69.8828 189.312 69.1016 188.804 68.0938C188.304 67.0781 188.054 65.8945 188.054 64.543C188.054 63.1992 188.3 62.0156 188.792 60.9922C189.292 59.9688 189.991 59.1719 190.89 58.6016C191.796 58.0234 192.859 57.7344 194.077 57.7344C194.82 57.7344 195.538 57.8555 196.234 58.0977C196.929 58.3398 197.554 58.7227 198.109 59.2461C198.663 59.7695 199.101 60.4492 199.421 61.2852C199.749 62.1211 199.913 63.1289 199.913 64.3086V65.2227H189.495V63.3125H198.601L197.417 63.9453C197.417 63.1406 197.292 62.4297 197.042 61.8125C196.792 61.1953 196.417 60.7148 195.917 60.3711C195.425 60.0195 194.812 59.8438 194.077 59.8438C193.343 59.8438 192.714 60.0195 192.191 60.3711C191.675 60.7227 191.28 61.1875 191.007 61.7656C190.734 62.3438 190.597 62.9766 190.597 63.6641V64.9648C190.597 65.8633 190.753 66.625 191.066 67.25C191.378 67.875 191.812 68.3516 192.366 68.6797C192.929 69.0078 193.581 69.1719 194.323 69.1719C194.808 69.1719 195.245 69.1016 195.636 68.9609C196.034 68.8203 196.378 68.6094 196.667 68.3281C196.956 68.0469 197.175 67.6992 197.323 67.2852L199.737 67.7422C199.542 68.4453 199.198 69.0625 198.706 69.5938C198.214 70.125 197.593 70.5391 196.843 70.8359C196.101 71.125 195.253 71.2695 194.3 71.2695ZM203.89 63.2305V71H201.359V57.8984H203.819V60.0547H203.995C204.292 59.3438 204.757 58.7812 205.39 58.3672C206.023 57.9453 206.835 57.7344 207.827 57.7344C208.718 57.7344 209.495 57.9219 210.159 58.2969C210.831 58.6641 211.351 59.2148 211.718 59.9492C212.093 60.6836 212.28 61.5938 212.28 62.6797V71H209.749V62.9844C209.749 62.0391 209.499 61.2969 208.999 60.7578C208.499 60.2109 207.819 59.9375 206.96 59.9375C206.374 59.9375 205.847 60.0703 205.378 60.3359C204.917 60.5938 204.554 60.9648 204.288 61.4492C204.023 61.9336 203.89 62.5273 203.89 63.2305ZM220.476 57.8984V59.9492H213.327V57.8984H220.476ZM215.237 54.7812H217.78V67.1562C217.78 67.7578 217.905 68.1992 218.155 68.4805C218.405 68.7539 218.808 68.8906 219.362 68.8906C219.495 68.8906 219.636 68.8828 219.784 68.8672C219.94 68.8516 220.097 68.8281 220.253 68.7969L220.733 70.9062C220.476 70.9922 220.194 71.0586 219.89 71.1055C219.585 71.1523 219.28 71.1758 218.976 71.1758C217.843 71.1758 216.937 70.8594 216.257 70.2266C215.577 69.5859 215.237 68.7344 215.237 67.6719V54.7812ZM226.975 71V57.8984H229.507V71H226.975ZM228.253 55.8828C227.808 55.8828 227.429 55.7344 227.116 55.4375C226.804 55.1406 226.647 54.7852 226.647 54.3711C226.647 53.9492 226.804 53.5898 227.116 53.293C227.429 52.9961 227.808 52.8477 228.253 52.8477C228.69 52.8477 229.065 52.9961 229.378 53.293C229.698 53.5898 229.858 53.9492 229.858 54.3711C229.858 54.7852 229.698 55.1406 229.378 55.4375C229.065 55.7344 228.69 55.8828 228.253 55.8828ZM234.139 63.2305V71H231.608V57.8984H234.069V60.0547H234.245C234.542 59.3438 235.007 58.7812 235.639 58.3672C236.272 57.9453 237.085 57.7344 238.077 57.7344C238.968 57.7344 239.745 57.9219 240.409 58.2969C241.081 58.6641 241.6 59.2148 241.968 59.9492C242.343 60.6836 242.53 61.5938 242.53 62.6797V71H239.999V62.9844C239.999 62.0391 239.749 61.2969 239.249 60.7578C238.749 60.2109 238.069 59.9375 237.21 59.9375C236.624 59.9375 236.097 60.0703 235.628 60.3359C235.167 60.5938 234.804 60.9648 234.538 61.4492C234.272 61.9336 234.139 62.5273 234.139 63.2305ZM254.428 61.1094L252.12 61.5078C251.971 61.0703 251.694 60.668 251.288 60.3008C250.889 59.9336 250.292 59.75 249.495 59.75C248.776 59.75 248.175 59.9141 247.69 60.2422C247.214 60.5625 246.975 60.9727 246.975 61.4727C246.975 61.9102 247.136 62.2656 247.456 62.5391C247.784 62.8125 248.303 63.0312 249.014 63.1953L251.112 63.6641C252.307 63.9375 253.202 64.3672 253.796 64.9531C254.389 65.5391 254.686 66.2891 254.686 67.2031C254.686 67.9922 254.46 68.6953 254.007 69.3125C253.553 69.9219 252.925 70.4023 252.12 70.7539C251.315 71.0977 250.386 71.2695 249.331 71.2695C247.862 71.2695 246.667 70.9531 245.745 70.3203C244.823 69.6875 244.257 68.7969 244.046 67.6484L246.495 67.2734C246.651 67.9141 246.968 68.3984 247.444 68.7266C247.928 69.0547 248.553 69.2188 249.319 69.2188C250.147 69.2188 250.811 69.043 251.311 68.6914C251.819 68.3398 252.073 67.9141 252.073 67.4141C252.073 66.5859 251.456 66.0273 250.221 65.7383L248.007 65.2461C246.78 64.9648 245.874 64.5234 245.288 63.9219C244.71 63.3125 244.421 62.5469 244.421 61.625C244.421 60.8516 244.636 60.1719 245.065 59.5859C245.503 59 246.1 58.5469 246.858 58.2266C247.624 57.8984 248.495 57.7344 249.471 57.7344C250.893 57.7344 252.007 58.043 252.811 58.6602C253.624 59.2773 254.163 60.0938 254.428 61.1094ZM256.132 71V57.8984H258.663V71H256.132ZM257.409 55.8828C256.964 55.8828 256.585 55.7344 256.272 55.4375C255.96 55.1406 255.803 54.7852 255.803 54.3711C255.803 53.9492 255.96 53.5898 256.272 53.293C256.585 52.9961 256.964 52.8477 257.409 52.8477C257.846 52.8477 258.221 52.9961 258.534 53.293C258.854 53.5898 259.014 53.9492 259.014 54.3711C259.014 54.7852 258.854 55.1406 258.534 55.4375C258.221 55.7344 257.846 55.8828 257.409 55.8828ZM266.225 76.1797C264.663 76.1797 263.432 75.8867 262.534 75.3008C261.635 74.7148 261.014 74.0195 260.671 73.2148L262.85 72.3125C263.007 72.5625 263.214 72.8281 263.471 73.1094C263.737 73.3906 264.092 73.6289 264.538 73.8242C264.983 74.0195 265.557 74.1172 266.26 74.1172C267.221 74.1172 268.018 73.8828 268.651 73.4141C269.284 72.9531 269.6 72.2109 269.6 71.1875V68.6211H269.424C269.284 68.8945 269.069 69.2031 268.78 69.5469C268.491 69.8828 268.096 70.1758 267.596 70.4258C267.096 70.6758 266.444 70.8008 265.639 70.8008C264.608 70.8008 263.678 70.5586 262.85 70.0742C262.03 69.582 261.374 68.8633 260.882 67.918C260.397 66.9648 260.155 65.793 260.155 64.4023C260.155 63.0117 260.393 61.8203 260.87 60.8281C261.354 59.8281 262.01 59.0625 262.839 58.5312C263.667 58 264.608 57.7344 265.663 57.7344C266.475 57.7344 267.132 57.8711 267.632 58.1445C268.139 58.4102 268.534 58.7227 268.815 59.082C269.096 59.4414 269.315 59.7578 269.471 60.0312H269.659V57.8984H272.132V71.293C272.132 72.418 271.87 73.3398 271.346 74.0586C270.831 74.7773 270.128 75.3086 269.237 75.6523C268.346 76.0039 267.342 76.1797 266.225 76.1797ZM266.202 68.6797C267.303 68.6797 268.147 68.3008 268.733 67.543C269.327 66.7773 269.624 65.7188 269.624 64.3672C269.624 63.4844 269.495 62.7109 269.237 62.0469C268.979 61.375 268.596 60.8516 268.089 60.4766C267.581 60.0938 266.952 59.9023 266.202 59.9023C265.436 59.9023 264.796 60.1016 264.28 60.5C263.772 60.8906 263.389 61.4258 263.132 62.1055C262.874 62.7773 262.745 63.5312 262.745 64.3672C262.745 65.2188 262.874 65.9727 263.132 66.6289C263.389 67.2773 263.776 67.7812 264.292 68.1406C264.815 68.5 265.452 68.6797 266.202 68.6797ZM276.764 63.2305V71H274.233V53.5391H276.729V60.0547H276.905C277.21 59.3438 277.674 58.7812 278.299 58.3672C278.932 57.9453 279.756 57.7344 280.772 57.7344C281.671 57.7344 282.456 57.918 283.128 58.2852C283.799 58.6523 284.323 59.2031 284.698 59.9375C285.081 60.6719 285.272 61.5859 285.272 62.6797V71H282.717V62.9844C282.717 62.0156 282.467 61.2656 281.967 60.7344C281.475 60.2031 280.788 59.9375 279.905 59.9375C279.296 59.9375 278.756 60.0703 278.288 60.3359C277.819 60.5938 277.448 60.9648 277.174 61.4492C276.901 61.9336 276.764 62.5273 276.764 63.2305ZM293.467 57.8984V59.9492H286.319V57.8984H293.467ZM288.229 54.7812H290.772V67.1562C290.772 67.7578 290.897 68.1992 291.147 68.4805C291.397 68.7539 291.799 68.8906 292.354 68.8906C292.487 68.8906 292.627 68.8828 292.776 68.8672C292.932 68.8516 293.088 68.8281 293.245 68.7969L293.725 70.9062C293.467 70.9922 293.186 71.0586 292.881 71.1055C292.577 71.1523 292.272 71.1758 291.967 71.1758C290.835 71.1758 289.928 70.8594 289.249 70.2266C288.569 69.5859 288.229 68.7344 288.229 67.6719V54.7812ZM304.545 61.1094L302.237 61.5078C302.088 61.0703 301.811 60.668 301.405 60.3008C301.006 59.9336 300.409 59.75 299.612 59.75C298.893 59.75 298.291 59.9141 297.807 60.2422C297.331 60.5625 297.092 60.9727 297.092 61.4727C297.092 61.9102 297.252 62.2656 297.573 62.5391C297.901 62.8125 298.42 63.0312 299.131 63.1953L301.229 63.6641C302.424 63.9375 303.319 64.3672 303.913 64.9531C304.506 65.5391 304.803 66.2891 304.803 67.2031C304.803 67.9922 304.577 68.6953 304.124 69.3125C303.67 69.9219 303.041 70.4023 302.237 70.7539C301.432 71.0977 300.502 71.2695 299.448 71.2695C297.979 71.2695 296.784 70.9531 295.862 70.3203C294.94 69.6875 294.374 68.7969 294.163 67.6484L296.612 67.2734C296.768 67.9141 297.084 68.3984 297.561 68.7266C298.045 69.0547 298.67 69.2188 299.436 69.2188C300.264 69.2188 300.928 69.043 301.428 68.6914C301.936 68.3398 302.19 67.9141 302.19 67.4141C302.19 66.5859 301.573 66.0273 300.338 65.7383L298.124 65.2461C296.897 64.9648 295.991 64.5234 295.405 63.9219C294.827 63.3125 294.538 62.5469 294.538 61.625C294.538 60.8516 294.752 60.1719 295.182 59.5859C295.62 59 296.217 58.5469 296.975 58.2266C297.741 57.8984 298.612 57.7344 299.588 57.7344C301.01 57.7344 302.124 58.043 302.928 58.6602C303.741 59.2773 304.28 60.0938 304.545 61.1094Z" fill="#071332"/>
<defs>
<linearGradient id="paint0_linear_2005_1798" x1="425.643" y1="647" x2="-129.518" y2="504.466" gradientUnits="userSpaceOnUse">
<stop stop-color="#F7F4FF"/>
<stop offset="1" stop-color="#F5FAFF"/>
</linearGradient>
</defs>
</svg>
