<svg width="398" height="160" viewBox="0 0 398 160" fill="none" xmlns="http://www.w3.org/2000/svg">
<g filter="url(#filter0_d_2001_1754)">
<path d="M11 97C11 103.627 16.3726 109 23 109H335C341.627 109 347 103.627 347 97V23C347 16.3726 341.627 11 335 11H23C16.3726 11 11 16.3726 11 23V97Z" fill="white"/>
<path d="M23 108.5H335C341.351 108.5 346.5 103.351 346.5 97V23C346.5 16.6487 341.351 11.5 335 11.5H23C16.6487 11.5 11.5 16.6487 11.5 23V97C11.5 103.351 16.6487 108.5 23 108.5Z" stroke="#E1E6F4"/>
</g>
<path d="M39.9297 45H38.0625L42.25 33.3594H44.2812L48.4609 45H46.6016L43.3047 35.4766H43.2109L39.9297 45ZM40.2422 40.4453H46.2812V41.9141H40.2422V40.4453ZM54.6994 41.3906V36.2656H56.3869V45H54.7306V43.4844H54.6369C54.4285 43.9479 54.1056 44.3359 53.6681 44.6484C53.2306 44.9609 52.6838 45.1146 52.0275 45.1094C51.465 45.1094 50.9676 44.987 50.5353 44.7422C50.1082 44.4974 49.7723 44.1302 49.5275 43.6406C49.2879 43.151 49.1681 42.5443 49.1681 41.8203V36.2656H50.8556V41.625C50.8556 42.2135 51.0223 42.6849 51.3556 43.0391C51.689 43.3932 52.1186 43.5677 52.6447 43.5625C52.9624 43.5625 53.2775 43.4844 53.59 43.3281C53.9077 43.1719 54.1707 42.9323 54.3791 42.6094C54.5926 42.2865 54.6994 41.8802 54.6994 41.3906ZM61.9144 36.2656V37.6328H57.1488V36.2656H61.9144ZM58.4222 34.1875H60.1175V42.4375C60.1175 42.8385 60.2008 43.1328 60.3675 43.3203C60.5342 43.5026 60.8024 43.5938 61.1722 43.5938C61.2607 43.5938 61.3545 43.5885 61.4534 43.5781C61.5576 43.5677 61.6618 43.5521 61.7659 43.5312L62.0863 44.9375C61.9144 44.9948 61.7269 45.0391 61.5238 45.0703C61.3206 45.1016 61.1175 45.1172 60.9144 45.1172C60.1592 45.1172 59.555 44.9062 59.1019 44.4844C58.6488 44.0573 58.4222 43.4896 58.4222 42.7812V34.1875ZM66.5434 45.1797C65.7257 45.1797 65.0096 44.9922 64.395 44.6172C63.7856 44.2422 63.3117 43.7161 62.9731 43.0391C62.6398 42.362 62.4731 41.5755 62.4731 40.6797C62.4731 39.7734 62.6398 38.9818 62.9731 38.3047C63.3117 37.6224 63.7856 37.0938 64.395 36.7188C65.0096 36.3438 65.7257 36.1562 66.5434 36.1562C67.3664 36.1562 68.0825 36.3438 68.6919 36.7188C69.3013 37.0938 69.7752 37.6224 70.1138 38.3047C70.4523 38.9818 70.6216 39.7734 70.6216 40.6797C70.6216 41.5755 70.4523 42.362 70.1138 43.0391C69.7752 43.7161 69.3013 44.2422 68.6919 44.6172C68.0825 44.9922 67.3664 45.1797 66.5434 45.1797ZM66.5434 43.75C67.0799 43.75 67.5226 43.6094 67.8716 43.3281C68.2205 43.0469 68.4783 42.6745 68.645 42.2109C68.8169 41.7422 68.9028 41.2318 68.9028 40.6797C68.9028 40.1172 68.8169 39.6016 68.645 39.1328C68.4783 38.6641 68.2205 38.2891 67.8716 38.0078C67.5226 37.7266 67.0799 37.5859 66.5434 37.5859C66.0122 37.5859 65.5721 37.7266 65.2231 38.0078C64.8794 38.2891 64.6216 38.6641 64.4497 39.1328C64.2778 39.6016 64.1919 40.1172 64.1919 40.6797C64.1919 41.2318 64.2778 41.7422 64.4497 42.2109C64.6216 42.6745 64.8794 43.0469 65.2231 43.3281C65.5721 43.6094 66.0122 43.75 66.5434 43.75ZM71.6881 45V36.2656H73.3053V37.7031H73.4225C73.6048 37.2188 73.9017 36.8411 74.3131 36.5703C74.7298 36.2943 75.2246 36.1562 75.7975 36.1562C76.3808 36.1562 76.8678 36.2943 77.2584 36.5703C77.6543 36.8411 77.9485 37.2188 78.1413 37.7031H78.235C78.4433 37.2292 78.7741 36.8542 79.2272 36.5781C79.6803 36.2969 80.2194 36.1562 80.8444 36.1562C81.636 36.1562 82.2845 36.4062 82.7897 36.9062C83.2949 37.401 83.5475 38.1484 83.5475 39.1484V45H81.8444V39.3047C81.8444 38.7109 81.6829 38.2839 81.36 38.0234C81.0371 37.7578 80.6517 37.625 80.2038 37.625C79.6517 37.625 79.222 37.7969 78.9147 38.1406C78.6126 38.4792 78.4616 38.9089 78.4616 39.4297V45H76.7584V39.1953C76.7584 38.7214 76.6126 38.3411 76.3209 38.0547C76.0293 37.7682 75.6465 37.625 75.1725 37.625C74.8496 37.625 74.5501 37.7109 74.2741 37.8828C74.0032 38.0495 73.7845 38.2839 73.6178 38.5859C73.4564 38.8828 73.3756 39.2266 73.3756 39.6172V45H71.6881ZM87.5438 45.1875C86.9917 45.1875 86.4917 45.0859 86.0438 44.8828C85.5958 44.6745 85.2417 44.3724 84.9813 43.9766C84.7208 43.5807 84.5906 43.099 84.5906 42.5312C84.5906 42.0365 84.6844 41.6328 84.8719 41.3203C85.0646 41.0026 85.3224 40.75 85.6453 40.5625C85.9682 40.375 86.3276 40.2344 86.7234 40.1406C87.1193 40.0469 87.5255 39.974 87.9422 39.9219C88.4682 39.8646 88.8927 39.8151 89.2156 39.7734C89.5385 39.7318 89.7729 39.6667 89.9188 39.5781C90.0698 39.4844 90.1453 39.3359 90.1453 39.1328V39.0938C90.1453 38.599 90.0047 38.2161 89.7234 37.9453C89.4474 37.6745 89.0359 37.5391 88.4891 37.5391C87.9214 37.5391 87.4708 37.6641 87.1375 37.9141C86.8094 38.1589 86.5828 38.4375 86.4578 38.75L84.8563 38.3828C85.049 37.8516 85.3276 37.4245 85.6922 37.1016C86.062 36.7734 86.4839 36.5339 86.9578 36.3828C87.437 36.2318 87.937 36.1562 88.4578 36.1562C88.8068 36.1562 89.1766 36.1979 89.5672 36.2812C89.9578 36.3594 90.325 36.5078 90.6688 36.7266C91.0177 36.9401 91.3016 37.2474 91.5203 37.6484C91.7391 38.0495 91.8484 38.5677 91.8484 39.2031V45H90.1844V43.8047H90.1219C90.0177 44.0182 89.8536 44.2318 89.6297 44.4453C89.4109 44.6589 89.1297 44.8359 88.7859 44.9766C88.4422 45.1172 88.0281 45.1875 87.5438 45.1875ZM87.9109 43.8281C88.3849 43.8281 88.7885 43.737 89.1219 43.5547C89.4552 43.3672 89.7104 43.1224 89.8875 42.8203C90.0646 42.5182 90.1531 42.1979 90.1531 41.8594V40.7266C90.0906 40.7839 89.9734 40.8385 89.8016 40.8906C89.6297 40.9427 89.4344 40.987 89.2156 41.0234C88.9969 41.0599 88.7833 41.0938 88.575 41.125C88.3667 41.151 88.1922 41.1719 88.0516 41.1875C87.7234 41.2344 87.424 41.3073 87.1531 41.4062C86.8823 41.5 86.6635 41.6406 86.4969 41.8281C86.3354 42.0104 86.2547 42.2526 86.2547 42.5547C86.2547 42.9766 86.4109 43.2943 86.7234 43.5078C87.0359 43.7214 87.4318 43.8281 87.9109 43.8281ZM97.3838 36.2656V37.6328H92.6181V36.2656H97.3838ZM93.8916 34.1875H95.5869V42.4375C95.5869 42.8385 95.6702 43.1328 95.8369 43.3203C96.0035 43.5026 96.2718 43.5938 96.6416 43.5938C96.7301 43.5938 96.8239 43.5885 96.9228 43.5781C97.027 43.5677 97.1311 43.5521 97.2353 43.5312L97.5556 44.9375C97.3838 44.9948 97.1963 45.0391 96.9931 45.0703C96.79 45.1016 96.5869 45.1172 96.3838 45.1172C95.6285 45.1172 95.0244 44.9062 94.5713 44.4844C94.1181 44.0573 93.8916 43.4896 93.8916 42.7812V34.1875ZM102.107 45.1797C101.252 45.1797 100.513 44.9948 99.8878 44.625C99.2628 44.2552 98.781 43.7344 98.4425 43.0625C98.1092 42.3854 97.9425 41.5964 97.9425 40.6953C97.9425 39.7995 98.1066 39.0104 98.4347 38.3281C98.768 37.6458 99.2342 37.1146 99.8331 36.7344C100.437 36.349 101.146 36.1562 101.958 36.1562C102.453 36.1562 102.932 36.237 103.396 36.3984C103.859 36.5599 104.276 36.8151 104.646 37.1641C105.015 37.513 105.307 37.9661 105.521 38.5234C105.739 39.0807 105.849 39.7526 105.849 40.5391V41.1484H98.9034V39.875H104.974L104.185 40.2969C104.185 39.7604 104.101 39.2865 103.935 38.875C103.768 38.4635 103.518 38.1432 103.185 37.9141C102.857 37.6797 102.448 37.5625 101.958 37.5625C101.469 37.5625 101.049 37.6797 100.7 37.9141C100.357 38.1484 100.094 38.4583 99.9113 38.8438C99.729 39.2292 99.6378 39.651 99.6378 40.1094V40.9766C99.6378 41.5755 99.742 42.0833 99.9503 42.5C100.159 42.9167 100.448 43.2344 100.818 43.4531C101.193 43.6719 101.627 43.7812 102.122 43.7812C102.445 43.7812 102.737 43.7344 102.997 43.6406C103.263 43.5469 103.492 43.4062 103.685 43.2188C103.877 43.0312 104.023 42.7995 104.122 42.5234L105.732 42.8281C105.601 43.2969 105.372 43.7083 105.044 44.0625C104.716 44.4167 104.302 44.6927 103.802 44.8906C103.307 45.0833 102.742 45.1797 102.107 45.1797ZM110.126 45.1719C109.418 45.1719 108.788 44.9922 108.236 44.6328C107.684 44.2682 107.251 43.75 106.939 43.0781C106.626 42.401 106.47 41.5938 106.47 40.6562C106.47 39.7083 106.629 38.8984 106.947 38.2266C107.264 37.5547 107.699 37.0417 108.251 36.6875C108.803 36.3333 109.428 36.1562 110.126 36.1562C110.673 36.1562 111.111 36.2474 111.439 36.4297C111.772 36.6068 112.03 36.8151 112.212 37.0547C112.4 37.2943 112.543 37.5052 112.642 37.6875H112.743V33.3594H114.431V45H112.783V43.6406H112.642C112.543 43.8229 112.397 44.0339 112.204 44.2734C112.012 44.513 111.749 44.724 111.415 44.9062C111.087 45.0833 110.658 45.1719 110.126 45.1719ZM110.493 43.7266C110.983 43.7266 111.397 43.5964 111.736 43.3359C112.074 43.0755 112.329 42.7135 112.501 42.25C112.678 41.7865 112.767 41.25 112.767 40.6406C112.767 40.0312 112.681 39.5 112.509 39.0469C112.337 38.5885 112.082 38.2344 111.743 37.9844C111.405 37.7292 110.988 37.6016 110.493 37.6016C109.983 37.6016 109.559 37.7344 109.22 38C108.881 38.2656 108.626 38.6276 108.454 39.0859C108.283 39.5443 108.197 40.0625 108.197 40.6406C108.197 41.224 108.283 41.75 108.454 42.2188C108.626 42.6823 108.881 43.0495 109.22 43.3203C109.564 43.5911 109.988 43.7266 110.493 43.7266ZM122.97 45.1797C122.132 45.1797 121.408 44.987 120.798 44.6016C120.189 44.2161 119.72 43.6849 119.392 43.0078C119.064 42.3307 118.9 41.5547 118.9 40.6797C118.9 39.7891 119.067 39.0052 119.4 38.3281C119.739 37.6458 120.21 37.1146 120.814 36.7344C121.423 36.349 122.137 36.1562 122.955 36.1562C123.621 36.1562 124.213 36.2786 124.728 36.5234C125.249 36.763 125.668 37.1042 125.986 37.5469C126.309 37.9896 126.499 38.5052 126.556 39.0938H124.9C124.843 38.8177 124.731 38.5651 124.564 38.3359C124.403 38.1068 124.189 37.9245 123.923 37.7891C123.658 37.6536 123.343 37.5859 122.978 37.5859C122.504 37.5859 122.09 37.7109 121.736 37.9609C121.387 38.2057 121.114 38.5573 120.916 39.0156C120.718 39.474 120.619 40.0156 120.619 40.6406C120.619 41.2708 120.715 41.8203 120.908 42.2891C121.101 42.7578 121.374 43.1198 121.728 43.375C122.088 43.625 122.504 43.75 122.978 43.75C123.468 43.75 123.884 43.6146 124.228 43.3438C124.577 43.0729 124.801 42.7031 124.9 42.2344H126.556C126.499 42.8021 126.317 43.3073 126.009 43.75C125.702 44.1927 125.291 44.5417 124.775 44.7969C124.259 45.0521 123.658 45.1797 122.97 45.1797ZM131.263 45.1797C130.446 45.1797 129.73 44.9922 129.115 44.6172C128.506 44.2422 128.032 43.7161 127.693 43.0391C127.36 42.362 127.193 41.5755 127.193 40.6797C127.193 39.7734 127.36 38.9818 127.693 38.3047C128.032 37.6224 128.506 37.0938 129.115 36.7188C129.73 36.3438 130.446 36.1562 131.263 36.1562C132.086 36.1562 132.802 36.3438 133.412 36.7188C134.021 37.0938 134.495 37.6224 134.834 38.3047C135.172 38.9818 135.342 39.7734 135.342 40.6797C135.342 41.5755 135.172 42.362 134.834 43.0391C134.495 43.7161 134.021 44.2422 133.412 44.6172C132.802 44.9922 132.086 45.1797 131.263 45.1797ZM131.263 43.75C131.8 43.75 132.243 43.6094 132.592 43.3281C132.941 43.0469 133.198 42.6745 133.365 42.2109C133.537 41.7422 133.623 41.2318 133.623 40.6797C133.623 40.1172 133.537 39.6016 133.365 39.1328C133.198 38.6641 132.941 38.2891 132.592 38.0078C132.243 37.7266 131.8 37.5859 131.263 37.5859C130.732 37.5859 130.292 37.7266 129.943 38.0078C129.599 38.2891 129.342 38.6641 129.17 39.1328C128.998 39.6016 128.912 40.1172 128.912 40.6797C128.912 41.2318 128.998 41.7422 129.17 42.2109C129.342 42.6745 129.599 43.0469 129.943 43.3281C130.292 43.6094 130.732 43.75 131.263 43.75ZM138.096 39.8203V45H136.408V36.2656H138.049V37.7031H138.166C138.364 37.2292 138.674 36.8542 139.096 36.5781C139.518 36.2969 140.059 36.1562 140.721 36.1562C141.314 36.1562 141.833 36.2812 142.275 36.5312C142.723 36.776 143.07 37.1432 143.314 37.6328C143.564 38.1224 143.689 38.7292 143.689 39.4531V45H142.002V39.6562C142.002 39.026 141.835 38.5312 141.502 38.1719C141.169 37.8073 140.715 37.625 140.143 37.625C139.752 37.625 139.4 37.7135 139.088 37.8906C138.781 38.0625 138.538 38.3099 138.361 38.6328C138.184 38.9557 138.096 39.3516 138.096 39.8203ZM149.217 36.2656V37.6328H144.451V36.2656H149.217ZM145.725 34.1875H147.42V42.4375C147.42 42.8385 147.503 43.1328 147.67 43.3203C147.837 43.5026 148.105 43.5938 148.475 43.5938C148.563 43.5938 148.657 43.5885 148.756 43.5781C148.86 43.5677 148.964 43.5521 149.068 43.5312L149.389 44.9375C149.217 44.9948 149.029 45.0391 148.826 45.0703C148.623 45.1016 148.42 45.1172 148.217 45.1172C147.462 45.1172 146.857 44.9062 146.404 44.4844C145.951 44.0573 145.725 43.4896 145.725 42.7812V34.1875ZM153.94 45.1797C153.086 45.1797 152.346 44.9948 151.721 44.625C151.096 44.2552 150.614 43.7344 150.276 43.0625C149.942 42.3854 149.776 41.5964 149.776 40.6953C149.776 39.7995 149.94 39.0104 150.268 38.3281C150.601 37.6458 151.067 37.1146 151.666 36.7344C152.27 36.349 152.979 36.1562 153.791 36.1562C154.286 36.1562 154.765 36.237 155.229 36.3984C155.692 36.5599 156.109 36.8151 156.479 37.1641C156.849 37.513 157.14 37.9661 157.354 38.5234C157.573 39.0807 157.682 39.7526 157.682 40.5391V41.1484H150.737V39.875H156.807L156.018 40.2969C156.018 39.7604 155.934 39.2865 155.768 38.875C155.601 38.4635 155.351 38.1432 155.018 37.9141C154.69 37.6797 154.281 37.5625 153.791 37.5625C153.302 37.5625 152.882 37.6797 152.533 37.9141C152.19 38.1484 151.927 38.4583 151.744 38.8438C151.562 39.2292 151.471 39.651 151.471 40.1094V40.9766C151.471 41.5755 151.575 42.0833 151.783 42.5C151.992 42.9167 152.281 43.2344 152.651 43.4531C153.026 43.6719 153.461 43.7812 153.955 43.7812C154.278 43.7812 154.57 43.7344 154.83 43.6406C155.096 43.5469 155.325 43.4062 155.518 43.2188C155.711 43.0312 155.856 42.7995 155.955 42.5234L157.565 42.8281C157.434 43.2969 157.205 43.7083 156.877 44.0625C156.549 44.4167 156.135 44.6927 155.635 44.8906C155.14 45.0833 154.575 45.1797 153.94 45.1797ZM160.397 39.8203V45H158.709V36.2656H160.35V37.7031H160.467C160.665 37.2292 160.975 36.8542 161.397 36.5781C161.819 36.2969 162.36 36.1562 163.022 36.1562C163.616 36.1562 164.134 36.2812 164.577 36.5312C165.024 36.776 165.371 37.1432 165.616 37.6328C165.866 38.1224 165.991 38.7292 165.991 39.4531V45H164.303V39.6562C164.303 39.026 164.136 38.5312 163.803 38.1719C163.47 37.8073 163.017 37.625 162.444 37.625C162.053 37.625 161.702 37.7135 161.389 37.8906C161.082 38.0625 160.84 38.3099 160.662 38.6328C160.485 38.9557 160.397 39.3516 160.397 39.8203ZM171.518 36.2656V37.6328H166.753V36.2656H171.518ZM168.026 34.1875H169.721V42.4375C169.721 42.8385 169.805 43.1328 169.971 43.3203C170.138 43.5026 170.406 43.5938 170.776 43.5938C170.864 43.5938 170.958 43.5885 171.057 43.5781C171.161 43.5677 171.266 43.5521 171.37 43.5312L171.69 44.9375C171.518 44.9948 171.331 45.0391 171.128 45.0703C170.924 45.1016 170.721 45.1172 170.518 45.1172C169.763 45.1172 169.159 44.9062 168.706 44.4844C168.253 44.0573 168.026 43.4896 168.026 42.7812V34.1875ZM175.979 45V36.2656H177.612V37.6641H177.706C177.867 37.1953 178.149 36.8255 178.55 36.5547C178.956 36.2786 179.414 36.1406 179.925 36.1406C180.029 36.1406 180.151 36.1458 180.292 36.1562C180.438 36.1615 180.555 36.1693 180.643 36.1797V37.8047C180.576 37.7839 180.453 37.763 180.276 37.7422C180.104 37.7214 179.93 37.7109 179.753 37.7109C179.352 37.7109 178.992 37.7969 178.675 37.9688C178.362 38.1354 178.115 38.3672 177.932 38.6641C177.755 38.9557 177.667 39.2943 177.667 39.6797V45H175.979ZM184.749 45.1797C183.895 45.1797 183.155 44.9948 182.53 44.625C181.905 44.2552 181.424 43.7344 181.085 43.0625C180.752 42.3854 180.585 41.5964 180.585 40.6953C180.585 39.7995 180.749 39.0104 181.077 38.3281C181.411 37.6458 181.877 37.1146 182.476 36.7344C183.08 36.349 183.788 36.1562 184.601 36.1562C185.095 36.1562 185.575 36.237 186.038 36.3984C186.502 36.5599 186.918 36.8151 187.288 37.1641C187.658 37.513 187.95 37.9661 188.163 38.5234C188.382 39.0807 188.491 39.7526 188.491 40.5391V41.1484H181.546V39.875H187.616L186.827 40.2969C186.827 39.7604 186.744 39.2865 186.577 38.875C186.411 38.4635 186.161 38.1432 185.827 37.9141C185.499 37.6797 185.09 37.5625 184.601 37.5625C184.111 37.5625 183.692 37.6797 183.343 37.9141C182.999 38.1484 182.736 38.4583 182.554 38.8438C182.371 39.2292 182.28 39.651 182.28 40.1094V40.9766C182.28 41.5755 182.384 42.0833 182.593 42.5C182.801 42.9167 183.09 43.2344 183.46 43.4531C183.835 43.6719 184.27 43.7812 184.765 43.7812C185.088 43.7812 185.379 43.7344 185.64 43.6406C185.905 43.5469 186.134 43.4062 186.327 43.2188C186.52 43.0312 186.666 42.7995 186.765 42.5234L188.374 42.8281C188.244 43.2969 188.015 43.7083 187.687 44.0625C187.358 44.4167 186.944 44.6927 186.444 44.8906C185.95 45.0833 185.384 45.1797 184.749 45.1797ZM196.659 36.2656L193.503 45H191.675L188.511 36.2656H190.331L192.55 43H192.644L194.847 36.2656H196.659ZM197.437 45V36.2656H199.124V45H197.437ZM198.288 34.9219C197.992 34.9219 197.739 34.8229 197.531 34.625C197.322 34.4271 197.218 34.1901 197.218 33.9141C197.218 33.6328 197.322 33.3932 197.531 33.1953C197.739 32.9974 197.992 32.8984 198.288 32.8984C198.58 32.8984 198.83 32.9974 199.038 33.1953C199.252 33.3932 199.359 33.6328 199.359 33.9141C199.359 34.1901 199.252 34.4271 199.038 34.625C198.83 34.8229 198.58 34.9219 198.288 34.9219ZM204.347 45.1797C203.493 45.1797 202.753 44.9948 202.128 44.625C201.503 44.2552 201.022 43.7344 200.683 43.0625C200.35 42.3854 200.183 41.5964 200.183 40.6953C200.183 39.7995 200.347 39.0104 200.675 38.3281C201.009 37.6458 201.475 37.1146 202.074 36.7344C202.678 36.349 203.386 36.1562 204.199 36.1562C204.694 36.1562 205.173 36.237 205.636 36.3984C206.1 36.5599 206.516 36.8151 206.886 37.1641C207.256 37.513 207.548 37.9661 207.761 38.5234C207.98 39.0807 208.089 39.7526 208.089 40.5391V41.1484H201.144V39.875H207.214L206.425 40.2969C206.425 39.7604 206.342 39.2865 206.175 38.875C206.009 38.4635 205.759 38.1432 205.425 37.9141C205.097 37.6797 204.688 37.5625 204.199 37.5625C203.709 37.5625 203.29 37.6797 202.941 37.9141C202.597 38.1484 202.334 38.4583 202.152 38.8438C201.97 39.2292 201.878 39.651 201.878 40.1094V40.9766C201.878 41.5755 201.983 42.0833 202.191 42.5C202.399 42.9167 202.688 43.2344 203.058 43.4531C203.433 43.6719 203.868 43.7812 204.363 43.7812C204.686 43.7812 204.977 43.7344 205.238 43.6406C205.503 43.5469 205.733 43.4062 205.925 43.2188C206.118 43.0312 206.264 42.7995 206.363 42.5234L207.972 42.8281C207.842 43.2969 207.613 43.7083 207.285 44.0625C206.957 44.4167 206.542 44.6927 206.042 44.8906C205.548 45.0833 204.983 45.1797 204.347 45.1797ZM210.734 45L208.172 36.2656H209.922L211.633 42.6797H211.726L213.437 36.2656H215.195L216.89 42.6562H216.976L218.679 36.2656H220.429L217.867 45H216.14L214.359 38.7031H214.242L212.461 45H210.734Z" fill="#071332"/>
<rect opacity="0.8" x="38" y="64" width="271" height="7" rx="3.5" fill="#D8D8F2"/>
<rect opacity="0.8" x="38" y="85" width="183" height="7" rx="3.5" fill="#D8D8F2"/>
<defs>
<filter id="filter0_d_2001_1754" x="0.4" y="0.4" width="397.2" height="159.2" filterUnits="userSpaceOnUse" color-interpolation-filters="sRGB">
<feFlood flood-opacity="0" result="BackgroundImageFix"/>
<feColorMatrix in="SourceAlpha" type="matrix" values="0 0 0 0 0 0 0 0 0 0 0 0 0 0 0 0 0 0 127 0" result="hardAlpha"/>
<feOffset dx="20" dy="20"/>
<feGaussianBlur stdDeviation="15.3"/>
<feComposite in2="hardAlpha" operator="out"/>
<feColorMatrix type="matrix" values="0 0 0 0 0.0959689 0 0 0 0 0.281731 0 0 0 0 0.831731 0 0 0 0.1 0"/>
<feBlend mode="normal" in2="BackgroundImageFix" result="effect1_dropShadow_2001_1754"/>
<feBlend mode="normal" in="SourceGraphic" in2="effect1_dropShadow_2001_1754" result="shape"/>
</filter>
</defs>
</svg>
