<svg width="435" height="301" viewBox="0 0 435 301" fill="none" xmlns="http://www.w3.org/2000/svg">
<g filter="url(#filter0_d_771_2121)">
<path d="M42 232C42 240.284 48.7157 247 57 247H378C386.284 247 393 240.284 393 232V45C393 36.7157 386.284 30 378 30H57C48.7157 30 42 36.7157 42 45V232Z" fill="url(#paint0_linear_771_2121)"/>
</g>
<path d="M65.25 71L62.0312 59.3594H63.875L66.1406 68.375H66.25L68.6094 59.3594H70.4375L72.7891 68.3828H72.9062L75.1641 59.3594H77.0234L73.7812 71H72.0156L69.5703 62.2891H69.4766L67.0312 71H65.25ZM80.5509 71.1797C79.7332 71.1797 79.0171 70.9922 78.4025 70.6172C77.7931 70.2422 77.3192 69.7161 76.9806 69.0391C76.6473 68.362 76.4806 67.5755 76.4806 66.6797C76.4806 65.7734 76.6473 64.9818 76.9806 64.3047C77.3192 63.6224 77.7931 63.0938 78.4025 62.7188C79.0171 62.3438 79.7332 62.1562 80.5509 62.1562C81.3739 62.1562 82.09 62.3438 82.6994 62.7188C83.3088 63.0938 83.7827 63.6224 84.1213 64.3047C84.4598 64.9818 84.6291 65.7734 84.6291 66.6797C84.6291 67.5755 84.4598 68.362 84.1213 69.0391C83.7827 69.7161 83.3088 70.2422 82.6994 70.6172C82.09 70.9922 81.3739 71.1797 80.5509 71.1797ZM80.5509 69.75C81.0874 69.75 81.5301 69.6094 81.8791 69.3281C82.228 69.0469 82.4858 68.6745 82.6525 68.2109C82.8244 67.7422 82.9103 67.2318 82.9103 66.6797C82.9103 66.1172 82.8244 65.6016 82.6525 65.1328C82.4858 64.6641 82.228 64.2891 81.8791 64.0078C81.5301 63.7266 81.0874 63.5859 80.5509 63.5859C80.0197 63.5859 79.5796 63.7266 79.2306 64.0078C78.8869 64.2891 78.6291 64.6641 78.4572 65.1328C78.2853 65.6016 78.1994 66.1172 78.1994 66.6797C78.1994 67.2318 78.2853 67.7422 78.4572 68.2109C78.6291 68.6745 78.8869 69.0469 79.2306 69.3281C79.5796 69.6094 80.0197 69.75 80.5509 69.75ZM85.6956 71V62.2656H87.3284V63.6641H87.4222C87.5836 63.1953 87.8649 62.8255 88.2659 62.5547C88.6722 62.2786 89.1305 62.1406 89.6409 62.1406C89.7451 62.1406 89.8675 62.1458 90.0081 62.1562C90.154 62.1615 90.2711 62.1693 90.3597 62.1797V63.8047C90.292 63.7839 90.1696 63.763 89.9925 63.7422C89.8206 63.7214 89.6461 63.7109 89.4691 63.7109C89.068 63.7109 88.7086 63.7969 88.3909 63.9688C88.0784 64.1354 87.831 64.3672 87.6488 64.6641C87.4717 64.9557 87.3831 65.2943 87.3831 65.6797V71H85.6956ZM92.5825 68.0391L92.5591 65.9688H92.8638L96.3403 62.2656H98.3716L94.4106 66.4844H94.1294L92.5825 68.0391ZM91.02 71V59.3594H92.7075V71H91.02ZM96.52 71L93.395 66.8594L94.5669 65.6641L98.6138 71H96.52ZM103.251 62.2656V63.6328H98.3209V62.2656H103.251ZM99.6647 71V61.25C99.6647 60.7083 99.7845 60.2578 100.024 59.8984C100.269 59.5339 100.587 59.263 100.977 59.0859C101.373 58.9036 101.798 58.8125 102.251 58.8125C102.6 58.8125 102.896 58.8411 103.141 58.8984C103.386 58.9557 103.566 59.0052 103.68 59.0469L103.274 60.4219C103.196 60.3958 103.094 60.3672 102.969 60.3359C102.85 60.3047 102.699 60.2891 102.516 60.2891C102.105 60.2891 101.808 60.3932 101.626 60.6016C101.443 60.8047 101.352 61.1016 101.352 61.4922V71H99.6647ZM105.856 59.3594V71H104.169V59.3594H105.856ZM110.985 71.1797C110.168 71.1797 109.451 70.9922 108.837 70.6172C108.228 70.2422 107.754 69.7161 107.415 69.0391C107.082 68.362 106.915 67.5755 106.915 66.6797C106.915 65.7734 107.082 64.9818 107.415 64.3047C107.754 63.6224 108.228 63.0938 108.837 62.7188C109.451 62.3438 110.168 62.1562 110.985 62.1562C111.808 62.1562 112.524 62.3438 113.134 62.7188C113.743 63.0938 114.217 63.6224 114.556 64.3047C114.894 64.9818 115.063 65.7734 115.063 66.6797C115.063 67.5755 114.894 68.362 114.556 69.0391C114.217 69.7161 113.743 70.2422 113.134 70.6172C112.524 70.9922 111.808 71.1797 110.985 71.1797ZM110.985 69.75C111.522 69.75 111.964 69.6094 112.313 69.3281C112.662 69.0469 112.92 68.6745 113.087 68.2109C113.259 67.7422 113.345 67.2318 113.345 66.6797C113.345 66.1172 113.259 65.6016 113.087 65.1328C112.92 64.6641 112.662 64.2891 112.313 64.0078C111.964 63.7266 111.522 63.5859 110.985 63.5859C110.454 63.5859 110.014 63.7266 109.665 64.0078C109.321 64.2891 109.063 64.6641 108.892 65.1328C108.72 65.6016 108.634 66.1172 108.634 66.6797C108.634 67.2318 108.72 67.7422 108.892 68.2109C109.063 68.6745 109.321 69.0469 109.665 69.3281C110.014 69.6094 110.454 69.75 110.985 69.75ZM117.747 71L115.185 62.2656H116.935L118.646 68.6797H118.739L120.45 62.2656H122.208L123.903 68.6562H123.989L125.693 62.2656H127.443L124.88 71H123.153L121.372 64.7031H121.255L119.474 71H117.747ZM131.638 74.2656V62.2656H133.279V63.6875H133.419C133.524 63.5052 133.667 63.2943 133.849 63.0547C134.037 62.8151 134.297 62.6068 134.63 62.4297C134.964 62.2474 135.399 62.1562 135.935 62.1562C136.638 62.1562 137.263 62.3333 137.81 62.6875C138.362 63.0417 138.797 63.5547 139.115 64.2266C139.432 64.8984 139.591 65.7083 139.591 66.6562C139.591 67.5938 139.435 68.401 139.122 69.0781C138.81 69.75 138.378 70.2682 137.826 70.6328C137.279 70.9922 136.651 71.1719 135.943 71.1719C135.417 71.1719 134.984 71.0833 134.646 70.9062C134.313 70.724 134.05 70.513 133.857 70.2734C133.669 70.0339 133.524 69.8229 133.419 69.6406H133.326V74.2656H131.638ZM135.576 69.7266C136.081 69.7266 136.503 69.5911 136.841 69.3203C137.18 69.0495 137.435 68.6823 137.607 68.2188C137.784 67.75 137.872 67.224 137.872 66.6406C137.872 66.0625 137.787 65.5443 137.615 65.0859C137.443 64.6276 137.188 64.2656 136.849 64C136.511 63.7344 136.086 63.6016 135.576 63.6016C135.081 63.6016 134.664 63.7292 134.326 63.9844C133.987 64.2344 133.729 64.5885 133.552 65.0469C133.38 65.5 133.294 66.0312 133.294 66.6406C133.294 67.25 133.383 67.7865 133.56 68.25C133.737 68.7135 133.995 69.0755 134.333 69.3359C134.677 69.5964 135.091 69.7266 135.576 69.7266ZM144.423 71.1797C143.569 71.1797 142.83 70.9948 142.205 70.625C141.58 70.2552 141.098 69.7344 140.759 69.0625C140.426 68.3854 140.259 67.5964 140.259 66.6953C140.259 65.7995 140.423 65.0104 140.752 64.3281C141.085 63.6458 141.551 63.1146 142.15 62.7344C142.754 62.349 143.463 62.1562 144.275 62.1562C144.77 62.1562 145.249 62.237 145.713 62.3984C146.176 62.5599 146.593 62.8151 146.963 63.1641C147.332 63.513 147.624 63.9661 147.838 64.5234C148.056 65.0807 148.166 65.7526 148.166 66.5391V67.1484H141.22V65.875H147.291L146.502 66.2969C146.502 65.7604 146.418 65.2865 146.252 64.875C146.085 64.4635 145.835 64.1432 145.502 63.9141C145.173 63.6797 144.765 63.5625 144.275 63.5625C143.785 63.5625 143.366 63.6797 143.017 63.9141C142.673 64.1484 142.41 64.4583 142.228 64.8438C142.046 65.2292 141.955 65.651 141.955 66.1094V66.9766C141.955 67.5755 142.059 68.0833 142.267 68.5C142.476 68.9167 142.765 69.2344 143.134 69.4531C143.509 69.6719 143.944 69.7812 144.439 69.7812C144.762 69.7812 145.054 69.7344 145.314 69.6406C145.58 69.5469 145.809 69.4062 146.002 69.2188C146.194 69.0312 146.34 68.7995 146.439 68.5234L148.048 68.8281C147.918 69.2969 147.689 69.7083 147.361 70.0625C147.033 70.4167 146.619 70.6927 146.119 70.8906C145.624 71.0833 145.059 71.1797 144.423 71.1797ZM149.193 71V62.2656H150.826V63.6641H150.92C151.081 63.1953 151.362 62.8255 151.763 62.5547C152.17 62.2786 152.628 62.1406 153.138 62.1406C153.243 62.1406 153.365 62.1458 153.506 62.1562C153.651 62.1615 153.769 62.1693 153.857 62.1797V63.8047C153.789 63.7839 153.667 63.763 153.49 63.7422C153.318 63.7214 153.144 63.7109 152.967 63.7109C152.566 63.7109 152.206 63.7969 151.888 63.9688C151.576 64.1354 151.329 64.3672 151.146 64.6641C150.969 64.9557 150.881 65.2943 150.881 65.6797V71H149.193ZM159.174 62.2656V63.6328H154.244V62.2656H159.174ZM155.588 71V61.25C155.588 60.7083 155.708 60.2578 155.947 59.8984C156.192 59.5339 156.51 59.263 156.9 59.0859C157.296 58.9036 157.721 58.8125 158.174 58.8125C158.523 58.8125 158.82 58.8411 159.064 58.8984C159.309 58.9557 159.489 59.0052 159.603 59.0469L159.197 60.4219C159.119 60.3958 159.018 60.3672 158.893 60.3359C158.773 60.3047 158.622 60.2891 158.439 60.2891C158.028 60.2891 157.731 60.3932 157.549 60.6016C157.366 60.8047 157.275 61.1016 157.275 61.4922V71H155.588ZM163.412 71.1797C162.594 71.1797 161.878 70.9922 161.264 70.6172C160.654 70.2422 160.18 69.7161 159.842 69.0391C159.509 68.362 159.342 67.5755 159.342 66.6797C159.342 65.7734 159.509 64.9818 159.842 64.3047C160.18 63.6224 160.654 63.0938 161.264 62.7188C161.878 62.3438 162.594 62.1562 163.412 62.1562C164.235 62.1562 164.951 62.3438 165.561 62.7188C166.17 63.0938 166.644 63.6224 166.982 64.3047C167.321 64.9818 167.49 65.7734 167.49 66.6797C167.49 67.5755 167.321 68.362 166.982 69.0391C166.644 69.7161 166.17 70.2422 165.561 70.6172C164.951 70.9922 164.235 71.1797 163.412 71.1797ZM163.412 69.75C163.949 69.75 164.391 69.6094 164.74 69.3281C165.089 69.0469 165.347 68.6745 165.514 68.2109C165.686 67.7422 165.772 67.2318 165.772 66.6797C165.772 66.1172 165.686 65.6016 165.514 65.1328C165.347 64.6641 165.089 64.2891 164.74 64.0078C164.391 63.7266 163.949 63.5859 163.412 63.5859C162.881 63.5859 162.441 63.7266 162.092 64.0078C161.748 64.2891 161.49 64.6641 161.318 65.1328C161.147 65.6016 161.061 66.1172 161.061 66.6797C161.061 67.2318 161.147 67.7422 161.318 68.2109C161.49 68.6745 161.748 69.0469 162.092 69.3281C162.441 69.6094 162.881 69.75 163.412 69.75ZM168.557 71V62.2656H170.19V63.6641H170.283C170.445 63.1953 170.726 62.8255 171.127 62.5547C171.533 62.2786 171.992 62.1406 172.502 62.1406C172.606 62.1406 172.729 62.1458 172.869 62.1562C173.015 62.1615 173.132 62.1693 173.221 62.1797V63.8047C173.153 63.7839 173.031 63.763 172.854 63.7422C172.682 63.7214 172.507 63.7109 172.33 63.7109C171.929 63.7109 171.57 63.7969 171.252 63.9688C170.94 64.1354 170.692 64.3672 170.51 64.6641C170.333 64.9557 170.244 65.2943 170.244 65.6797V71H168.557ZM173.881 71V62.2656H175.498V63.7031H175.616C175.798 63.2188 176.095 62.8411 176.506 62.5703C176.923 62.2943 177.418 62.1562 177.991 62.1562C178.574 62.1562 179.061 62.2943 179.452 62.5703C179.847 62.8411 180.142 63.2188 180.334 63.7031H180.428C180.636 63.2292 180.967 62.8542 181.42 62.5781C181.873 62.2969 182.412 62.1562 183.037 62.1562C183.829 62.1562 184.478 62.4062 184.983 62.9062C185.488 63.401 185.741 64.1484 185.741 65.1484V71H184.037V65.3047C184.037 64.7109 183.876 64.2839 183.553 64.0234C183.23 63.7578 182.845 63.625 182.397 63.625C181.845 63.625 181.415 63.7969 181.108 64.1406C180.806 64.4792 180.655 64.9089 180.655 65.4297V71H178.952V65.1953C178.952 64.7214 178.806 64.3411 178.514 64.0547C178.222 63.7682 177.84 63.625 177.366 63.625C177.043 63.625 176.743 63.7109 176.467 63.8828C176.196 64.0495 175.978 64.2839 175.811 64.5859C175.649 64.8828 175.569 65.2266 175.569 65.6172V71H173.881ZM189.737 71.1875C189.185 71.1875 188.685 71.0859 188.237 70.8828C187.789 70.6745 187.435 70.3724 187.174 69.9766C186.914 69.5807 186.784 69.099 186.784 68.5312C186.784 68.0365 186.878 67.6328 187.065 67.3203C187.258 67.0026 187.516 66.75 187.838 66.5625C188.161 66.375 188.521 66.2344 188.917 66.1406C189.312 66.0469 189.719 65.974 190.135 65.9219C190.661 65.8646 191.086 65.8151 191.409 65.7734C191.732 65.7318 191.966 65.6667 192.112 65.5781C192.263 65.4844 192.338 65.3359 192.338 65.1328V65.0938C192.338 64.599 192.198 64.2161 191.917 63.9453C191.641 63.6745 191.229 63.5391 190.682 63.5391C190.114 63.5391 189.664 63.6641 189.331 63.9141C189.003 64.1589 188.776 64.4375 188.651 64.75L187.049 64.3828C187.242 63.8516 187.521 63.4245 187.885 63.1016C188.255 62.7734 188.677 62.5339 189.151 62.3828C189.63 62.2318 190.13 62.1562 190.651 62.1562C191 62.1562 191.37 62.1979 191.76 62.2812C192.151 62.3594 192.518 62.5078 192.862 62.7266C193.211 62.9401 193.495 63.2474 193.713 63.6484C193.932 64.0495 194.042 64.5677 194.042 65.2031V71H192.378V69.8047H192.315C192.211 70.0182 192.047 70.2318 191.823 70.4453C191.604 70.6589 191.323 70.8359 190.979 70.9766C190.635 71.1172 190.221 71.1875 189.737 71.1875ZM190.104 69.8281C190.578 69.8281 190.982 69.737 191.315 69.5547C191.648 69.3672 191.904 69.1224 192.081 68.8203C192.258 68.5182 192.346 68.1979 192.346 67.8594V66.7266C192.284 66.7839 192.167 66.8385 191.995 66.8906C191.823 66.9427 191.628 66.987 191.409 67.0234C191.19 67.0599 190.976 67.0938 190.768 67.125C190.56 67.151 190.385 67.1719 190.245 67.1875C189.917 67.2344 189.617 67.3073 189.346 67.4062C189.075 67.5 188.857 67.6406 188.69 67.8281C188.529 68.0104 188.448 68.2526 188.448 68.5547C188.448 68.9766 188.604 69.2943 188.917 69.5078C189.229 69.7214 189.625 69.8281 190.104 69.8281ZM197.202 65.8203V71H195.514V62.2656H197.155V63.7031H197.272C197.47 63.2292 197.78 62.8542 198.202 62.5781C198.624 62.2969 199.165 62.1562 199.827 62.1562C200.421 62.1562 200.939 62.2812 201.382 62.5312C201.829 62.776 202.176 63.1432 202.421 63.6328C202.671 64.1224 202.796 64.7292 202.796 65.4531V71H201.108V65.6562C201.108 65.026 200.941 64.5312 200.608 64.1719C200.275 63.8073 199.822 63.625 199.249 63.625C198.858 63.625 198.507 63.7135 198.194 63.8906C197.887 64.0625 197.645 64.3099 197.467 64.6328C197.29 64.9557 197.202 65.3516 197.202 65.8203ZM207.925 71.1797C207.086 71.1797 206.362 70.987 205.753 70.6016C205.143 70.2161 204.675 69.6849 204.347 69.0078C204.018 68.3307 203.854 67.5547 203.854 66.6797C203.854 65.7891 204.021 65.0052 204.354 64.3281C204.693 63.6458 205.164 63.1146 205.768 62.7344C206.378 62.349 207.091 62.1562 207.909 62.1562C208.576 62.1562 209.167 62.2786 209.682 62.5234C210.203 62.763 210.623 63.1042 210.94 63.5469C211.263 63.9896 211.453 64.5052 211.511 65.0938H209.854C209.797 64.8177 209.685 64.5651 209.518 64.3359C209.357 64.1068 209.143 63.9245 208.878 63.7891C208.612 63.6536 208.297 63.5859 207.932 63.5859C207.459 63.5859 207.044 63.7109 206.69 63.9609C206.341 64.2057 206.068 64.5573 205.87 65.0156C205.672 65.474 205.573 66.0156 205.573 66.6406C205.573 67.2708 205.669 67.8203 205.862 68.2891C206.055 68.7578 206.328 69.1198 206.682 69.375C207.042 69.625 207.459 69.75 207.932 69.75C208.422 69.75 208.839 69.6146 209.182 69.3438C209.531 69.0729 209.755 68.7031 209.854 68.2344H211.511C211.453 68.8021 211.271 69.3073 210.964 69.75C210.656 70.1927 210.245 70.5417 209.729 70.7969C209.214 71.0521 208.612 71.1797 207.925 71.1797ZM216.312 71.1797C215.457 71.1797 214.718 70.9948 214.093 70.625C213.468 70.2552 212.986 69.7344 212.648 69.0625C212.314 68.3854 212.148 67.5964 212.148 66.6953C212.148 65.7995 212.312 65.0104 212.64 64.3281C212.973 63.6458 213.439 63.1146 214.038 62.7344C214.642 62.349 215.351 62.1562 216.163 62.1562C216.658 62.1562 217.137 62.237 217.601 62.3984C218.064 62.5599 218.481 62.8151 218.851 63.1641C219.22 63.513 219.512 63.9661 219.726 64.5234C219.944 65.0807 220.054 65.7526 220.054 66.5391V67.1484H213.108V65.875H219.179L218.39 66.2969C218.39 65.7604 218.306 65.2865 218.14 64.875C217.973 64.4635 217.723 64.1432 217.39 63.9141C217.062 63.6797 216.653 63.5625 216.163 63.5625C215.674 63.5625 215.254 63.6797 214.905 63.9141C214.562 64.1484 214.299 64.4583 214.116 64.8438C213.934 65.2292 213.843 65.651 213.843 66.1094V66.9766C213.843 67.5755 213.947 68.0833 214.155 68.5C214.364 68.9167 214.653 69.2344 215.023 69.4531C215.398 69.6719 215.832 69.7812 216.327 69.7812C216.65 69.7812 216.942 69.7344 217.202 69.6406C217.468 69.5469 217.697 69.4062 217.89 69.2188C218.082 69.0312 218.228 68.7995 218.327 68.5234L219.937 68.8281C219.806 69.2969 219.577 69.7083 219.249 70.0625C218.921 70.4167 218.507 70.6927 218.007 70.8906C217.512 71.0833 216.947 71.1797 216.312 71.1797ZM227.015 71.1875C226.463 71.1875 225.963 71.0859 225.515 70.8828C225.067 70.6745 224.713 70.3724 224.452 69.9766C224.192 69.5807 224.062 69.099 224.062 68.5312C224.062 68.0365 224.156 67.6328 224.343 67.3203C224.536 67.0026 224.794 66.75 225.117 66.5625C225.439 66.375 225.799 66.2344 226.195 66.1406C226.591 66.0469 226.997 65.974 227.413 65.9219C227.939 65.8646 228.364 65.8151 228.687 65.7734C229.01 65.7318 229.244 65.6667 229.39 65.5781C229.541 65.4844 229.617 65.3359 229.617 65.1328V65.0938C229.617 64.599 229.476 64.2161 229.195 63.9453C228.919 63.6745 228.507 63.5391 227.96 63.5391C227.393 63.5391 226.942 63.6641 226.609 63.9141C226.281 64.1589 226.054 64.4375 225.929 64.75L224.327 64.3828C224.52 63.8516 224.799 63.4245 225.163 63.1016C225.533 62.7734 225.955 62.5339 226.429 62.3828C226.908 62.2318 227.408 62.1562 227.929 62.1562C228.278 62.1562 228.648 62.1979 229.038 62.2812C229.429 62.3594 229.796 62.5078 230.14 62.7266C230.489 62.9401 230.773 63.2474 230.992 63.6484C231.21 64.0495 231.32 64.5677 231.32 65.2031V71H229.656V69.8047H229.593C229.489 70.0182 229.325 70.2318 229.101 70.4453C228.882 70.6589 228.601 70.8359 228.257 70.9766C227.913 71.1172 227.499 71.1875 227.015 71.1875ZM227.382 69.8281C227.856 69.8281 228.26 69.737 228.593 69.5547C228.926 69.3672 229.182 69.1224 229.359 68.8203C229.536 68.5182 229.624 68.1979 229.624 67.8594V66.7266C229.562 66.7839 229.445 66.8385 229.273 66.8906C229.101 66.9427 228.906 66.987 228.687 67.0234C228.468 67.0599 228.255 67.0938 228.046 67.125C227.838 67.151 227.663 67.1719 227.523 67.1875C227.195 67.2344 226.895 67.3073 226.624 67.4062C226.354 67.5 226.135 67.6406 225.968 67.8281C225.807 68.0104 225.726 68.2526 225.726 68.5547C225.726 68.9766 225.882 69.2943 226.195 69.5078C226.507 69.7214 226.903 69.8281 227.382 69.8281ZM234.48 65.8203V71H232.792V62.2656H234.433V63.7031H234.55C234.748 63.2292 235.058 62.8542 235.48 62.5781C235.902 62.2969 236.444 62.1562 237.105 62.1562C237.699 62.1562 238.217 62.2812 238.66 62.5312C239.108 62.776 239.454 63.1432 239.699 63.6328C239.949 64.1224 240.074 64.7292 240.074 65.4531V71H238.386V65.6562C238.386 65.026 238.22 64.5312 237.886 64.1719C237.553 63.8073 237.1 63.625 236.527 63.625C236.136 63.625 235.785 63.7135 235.472 63.8906C235.165 64.0625 234.923 64.3099 234.746 64.6328C234.569 64.9557 234.48 65.3516 234.48 65.8203ZM244.07 71.1875C243.518 71.1875 243.018 71.0859 242.57 70.8828C242.122 70.6745 241.768 70.3724 241.508 69.9766C241.247 69.5807 241.117 69.099 241.117 68.5312C241.117 68.0365 241.211 67.6328 241.398 67.3203C241.591 67.0026 241.849 66.75 242.172 66.5625C242.494 66.375 242.854 66.2344 243.25 66.1406C243.646 66.0469 244.052 65.974 244.468 65.9219C244.994 65.8646 245.419 65.8151 245.742 65.7734C246.065 65.7318 246.299 65.6667 246.445 65.5781C246.596 65.4844 246.672 65.3359 246.672 65.1328V65.0938C246.672 64.599 246.531 64.2161 246.25 63.9453C245.974 63.6745 245.562 63.5391 245.015 63.5391C244.448 63.5391 243.997 63.6641 243.664 63.9141C243.336 64.1589 243.109 64.4375 242.984 64.75L241.383 64.3828C241.575 63.8516 241.854 63.4245 242.218 63.1016C242.588 62.7734 243.01 62.5339 243.484 62.3828C243.963 62.2318 244.463 62.1562 244.984 62.1562C245.333 62.1562 245.703 62.1979 246.093 62.2812C246.484 62.3594 246.851 62.5078 247.195 62.7266C247.544 62.9401 247.828 63.2474 248.047 63.6484C248.265 64.0495 248.375 64.5677 248.375 65.2031V71H246.711V69.8047H246.648C246.544 70.0182 246.38 70.2318 246.156 70.4453C245.937 70.6589 245.656 70.8359 245.312 70.9766C244.968 71.1172 244.554 71.1875 244.07 71.1875ZM244.437 69.8281C244.911 69.8281 245.315 69.737 245.648 69.5547C245.981 69.3672 246.237 69.1224 246.414 68.8203C246.591 68.5182 246.679 68.1979 246.679 67.8594V66.7266C246.617 66.7839 246.5 66.8385 246.328 66.8906C246.156 66.9427 245.961 66.987 245.742 67.0234C245.523 67.0599 245.31 67.0938 245.101 67.125C244.893 67.151 244.718 67.1719 244.578 67.1875C244.25 67.2344 243.95 67.3073 243.679 67.4062C243.409 67.5 243.19 67.6406 243.023 67.8281C242.862 68.0104 242.781 68.2526 242.781 68.5547C242.781 68.9766 242.937 69.2943 243.25 69.5078C243.562 69.7214 243.958 69.8281 244.437 69.8281ZM251.535 59.3594V71H249.848V59.3594H251.535ZM254.062 74.2656C253.807 74.2708 253.576 74.2526 253.367 74.2109C253.164 74.1745 253.008 74.1302 252.898 74.0781L253.312 72.6953L253.43 72.7266C253.862 72.8359 254.227 72.8281 254.523 72.7031C254.826 72.5833 255.078 72.2474 255.281 71.6953L255.492 71.1172L252.305 62.2656H254.125L256.328 69.0469H256.422L258.633 62.2656H260.453L256.859 72.1562C256.693 72.6146 256.482 73 256.227 73.3125C255.971 73.6302 255.664 73.8672 255.305 74.0234C254.951 74.1849 254.536 74.2656 254.062 74.2656ZM267.762 64.4062L266.223 64.6719C266.124 64.3802 265.939 64.112 265.668 63.8672C265.402 63.6224 265.004 63.5 264.473 63.5C263.994 63.5 263.593 63.6094 263.27 63.8281C262.952 64.0417 262.793 64.3151 262.793 64.6484C262.793 64.9401 262.9 65.1771 263.113 65.3594C263.332 65.5417 263.679 65.6875 264.152 65.7969L265.551 66.1094C266.348 66.2917 266.944 66.5781 267.34 66.9688C267.736 67.3594 267.934 67.8594 267.934 68.4688C267.934 68.9948 267.783 69.4635 267.481 69.875C267.179 70.2812 266.759 70.6016 266.223 70.8359C265.686 71.0651 265.067 71.1797 264.363 71.1797C263.384 71.1797 262.587 70.9688 261.973 70.5469C261.358 70.125 260.981 69.5312 260.84 68.7656L262.473 68.5156C262.577 68.9427 262.788 69.2656 263.106 69.4844C263.429 69.7031 263.845 69.8125 264.356 69.8125C264.908 69.8125 265.35 69.6953 265.684 69.4609C266.022 69.2266 266.192 68.9427 266.192 68.6094C266.192 68.0573 265.78 67.6849 264.957 67.4922L263.481 67.1641C262.663 66.9766 262.059 66.6823 261.668 66.2812C261.283 65.875 261.09 65.3646 261.09 64.75C261.09 64.2344 261.233 63.7812 261.52 63.3906C261.811 63 262.21 62.6979 262.715 62.4844C263.225 62.2656 263.806 62.1562 264.457 62.1562C265.405 62.1562 266.147 62.362 266.684 62.7734C267.225 63.1849 267.585 63.7292 267.762 64.4062ZM268.961 71V62.2656H270.649V71H268.961ZM269.813 60.9219C269.516 60.9219 269.263 60.8229 269.055 60.625C268.847 60.4271 268.742 60.1901 268.742 59.9141C268.742 59.6328 268.847 59.3932 269.055 59.1953C269.263 58.9974 269.516 58.8984 269.813 58.8984C270.104 58.8984 270.354 58.9974 270.563 59.1953C270.776 59.3932 270.883 59.6328 270.883 59.9141C270.883 60.1901 270.776 60.4271 270.563 60.625C270.354 60.8229 270.104 60.9219 269.813 60.9219ZM278.645 64.4062L277.106 64.6719C277.007 64.3802 276.822 64.112 276.551 63.8672C276.286 63.6224 275.887 63.5 275.356 63.5C274.877 63.5 274.476 63.6094 274.153 63.8281C273.835 64.0417 273.676 64.3151 273.676 64.6484C273.676 64.9401 273.783 65.1771 273.997 65.3594C274.215 65.5417 274.562 65.6875 275.036 65.7969L276.434 66.1094C277.231 66.2917 277.827 66.5781 278.223 66.9688C278.619 67.3594 278.817 67.8594 278.817 68.4688C278.817 68.9948 278.666 69.4635 278.364 69.875C278.062 70.2812 277.642 70.6016 277.106 70.8359C276.569 71.0651 275.95 71.1797 275.247 71.1797C274.267 71.1797 273.471 70.9688 272.856 70.5469C272.241 70.125 271.864 69.5312 271.723 68.7656L273.356 68.5156C273.46 68.9427 273.671 69.2656 273.989 69.4844C274.312 69.7031 274.728 69.8125 275.239 69.8125C275.791 69.8125 276.234 69.6953 276.567 69.4609C276.905 69.2266 277.075 68.9427 277.075 68.6094C277.075 68.0573 276.663 67.6849 275.84 67.4922L274.364 67.1641C273.546 66.9766 272.942 66.6823 272.551 66.2812C272.166 65.875 271.973 65.3646 271.973 64.75C271.973 64.2344 272.116 63.7812 272.403 63.3906C272.694 63 273.093 62.6979 273.598 62.4844C274.109 62.2656 274.689 62.1562 275.34 62.1562C276.288 62.1562 277.03 62.362 277.567 62.7734C278.109 63.1849 278.468 63.7292 278.645 64.4062Z" fill="white"/>
<path opacity="0.5" d="M77 109.146H366" stroke="#BEA4FF" stroke-linecap="round"/>
<path opacity="0.5" d="M77 148.146H366" stroke="#BEA4FF" stroke-linecap="round"/>
<path opacity="0.5" d="M77 189.146H366" stroke="#BEA4FF" stroke-linecap="round"/>
<path d="M58.14 112.12C57.6467 112.12 57.2233 112.033 56.87 111.86C56.5167 111.68 56.2367 111.44 56.03 111.14C55.8233 110.833 55.6967 110.49 55.65 110.11H56.63C56.6967 110.45 56.8633 110.73 57.13 110.95C57.3967 111.163 57.7333 111.27 58.14 111.27C58.4467 111.27 58.71 111.197 58.93 111.05C59.15 110.903 59.32 110.707 59.44 110.46C59.56 110.213 59.62 109.94 59.62 109.64C59.62 109.32 59.5567 109.043 59.43 108.81C59.31 108.57 59.14 108.383 58.92 108.25C58.7067 108.117 58.4567 108.05 58.17 108.05C57.8233 108.05 57.5233 108.13 57.27 108.29C57.0233 108.443 56.8433 108.64 56.73 108.88H55.76L56.34 105H60.11V105.87H57.11L56.74 107.83C56.9 107.65 57.1133 107.503 57.38 107.39C57.6533 107.277 57.9633 107.22 58.31 107.22C58.6633 107.22 58.98 107.283 59.26 107.41C59.54 107.53 59.7767 107.7 59.97 107.92C60.17 108.14 60.32 108.397 60.42 108.69C60.5267 108.983 60.58 109.293 60.58 109.62C60.58 109.973 60.5233 110.3 60.41 110.6C60.2967 110.9 60.1333 111.167 59.92 111.4C59.7133 111.627 59.4567 111.803 59.15 111.93C58.85 112.057 58.5133 112.12 58.14 112.12ZM61.8726 112V105H62.8726V108.04L65.6726 105H66.9226L64.3226 107.78L66.9726 112H65.7526L63.6126 108.56L62.8726 109.35V112H61.8726Z" fill="white"/>
<path d="M57.95 150.597C57.5033 150.597 57.0933 150.517 56.72 150.357C56.3533 150.19 56.06 149.943 55.84 149.617C55.6267 149.283 55.5133 148.867 55.5 148.367H56.5C56.5067 148.62 56.5667 148.85 56.68 149.057C56.7933 149.263 56.9567 149.43 57.17 149.557C57.39 149.677 57.65 149.737 57.95 149.737C58.25 149.737 58.5 149.68 58.7 149.567C58.9067 149.453 59.06 149.3 59.16 149.107C59.2667 148.913 59.32 148.697 59.32 148.457C59.32 148.157 59.2467 147.913 59.1 147.727C58.96 147.54 58.7667 147.4 58.52 147.307C58.28 147.213 58.01 147.167 57.71 147.167H57.19V146.327H57.71C58.13 146.327 58.4633 146.23 58.71 146.037C58.9633 145.843 59.09 145.57 59.09 145.217C59.09 144.923 58.9933 144.683 58.8 144.497C58.6067 144.31 58.3233 144.217 57.95 144.217C57.5767 144.217 57.28 144.323 57.06 144.537C56.8467 144.75 56.7267 145.02 56.7 145.347H55.71C55.73 144.953 55.8333 144.607 56.02 144.307C56.2133 144 56.4733 143.767 56.8 143.607C57.1333 143.44 57.5167 143.357 57.95 143.357C58.4167 143.357 58.8067 143.44 59.12 143.607C59.44 143.767 59.68 143.983 59.84 144.257C60.0067 144.53 60.09 144.83 60.09 145.157C60.09 145.403 60.0433 145.633 59.95 145.847C59.8567 146.053 59.7233 146.233 59.55 146.387C59.3767 146.54 59.1667 146.65 58.92 146.717C59.1867 146.77 59.4267 146.873 59.64 147.027C59.8533 147.18 60.02 147.38 60.14 147.627C60.26 147.867 60.32 148.147 60.32 148.467C60.32 148.847 60.23 149.2 60.05 149.527C59.87 149.847 59.6033 150.107 59.25 150.307C58.9033 150.5 58.47 150.597 57.95 150.597ZM61.6675 150.477V143.477H62.6675V146.517L65.4675 143.477H66.7175L64.1175 146.257L66.7675 150.477H65.5475L63.4075 147.037L62.6675 147.827V150.477H61.6675Z" fill="white"/>
<path d="M56.53 190.831V184.961L55.31 185.271V184.521L56.9 183.831H57.55V190.831H56.53ZM59.0113 190.831V183.831H60.0113V186.871L62.8113 183.831H64.0613L61.4613 186.611L64.1113 190.831H62.8913L60.7513 187.391L60.0113 188.181V190.831H59.0113Z" fill="white"/>
<path d="M77.59 214.97V214.25C78.0567 213.89 78.5 213.526 78.92 213.16C79.34 212.793 79.7133 212.43 80.04 212.07C80.3733 211.703 80.6333 211.346 80.82 211C81.0067 210.646 81.1 210.31 81.1 209.99C81.1 209.763 81.06 209.553 80.98 209.36C80.9 209.166 80.7733 209.01 80.6 208.89C80.4267 208.763 80.19 208.7 79.89 208.7C79.6033 208.7 79.3633 208.763 79.17 208.89C78.9833 209.016 78.84 209.186 78.74 209.4C78.6467 209.606 78.6 209.836 78.6 210.09H77.63C77.6367 209.61 77.74 209.203 77.94 208.87C78.14 208.536 78.41 208.283 78.75 208.11C79.0967 207.936 79.4833 207.85 79.91 207.85C80.3567 207.85 80.7433 207.933 81.07 208.1C81.3967 208.26 81.65 208.496 81.83 208.81C82.01 209.116 82.1 209.493 82.1 209.94C82.1 210.26 82.0367 210.58 81.91 210.9C81.7833 211.213 81.61 211.52 81.39 211.82C81.1767 212.12 80.9367 212.41 80.67 212.69C80.4033 212.963 80.1267 213.223 79.84 213.47C79.56 213.716 79.29 213.94 79.03 214.14H82.32V214.97H77.59ZM86.1534 215.09C85.5334 215.09 85 214.94 84.5534 214.64C84.1067 214.333 83.7634 213.91 83.5234 213.37C83.2834 212.823 83.1634 212.19 83.1634 211.47C83.1634 210.75 83.2834 210.12 83.5234 209.58C83.7634 209.033 84.1067 208.61 84.5534 208.31C85 208.003 85.5334 207.85 86.1534 207.85C86.7734 207.85 87.3034 208.003 87.7434 208.31C88.19 208.61 88.53 209.033 88.7634 209.58C89.0034 210.12 89.1234 210.75 89.1234 211.47C89.1234 212.19 89.0034 212.823 88.7634 213.37C88.53 213.91 88.19 214.333 87.7434 214.64C87.3034 214.94 86.7734 215.09 86.1534 215.09ZM86.1534 214.2C86.5267 214.2 86.86 214.09 87.1534 213.87C87.4534 213.65 87.6867 213.336 87.8534 212.93C88.02 212.523 88.1034 212.036 88.1034 211.47C88.1034 210.903 88.02 210.416 87.8534 210.01C87.6867 209.603 87.4534 209.293 87.1534 209.08C86.86 208.86 86.5267 208.75 86.1534 208.75C85.7734 208.75 85.4334 208.86 85.1334 209.08C84.8334 209.293 84.6 209.603 84.4334 210.01C84.2667 210.416 84.1834 210.903 84.1834 211.47C84.1834 212.036 84.2667 212.523 84.4334 212.93C84.6 213.336 84.8334 213.65 85.1334 213.87C85.4334 214.09 85.7734 214.2 86.1534 214.2ZM91.1277 214.97V209.1L89.9077 209.41V208.66L91.4977 207.97H92.1477V214.97H91.1277ZM96.0189 215.09C95.5256 215.09 95.1022 215.003 94.7489 214.83C94.3956 214.65 94.1156 214.41 93.9089 214.11C93.7022 213.803 93.5756 213.46 93.5289 213.08H94.5089C94.5756 213.42 94.7422 213.7 95.0089 213.92C95.2756 214.133 95.6122 214.24 96.0189 214.24C96.3256 214.24 96.5889 214.166 96.8089 214.02C97.0289 213.873 97.1989 213.676 97.3189 213.43C97.4389 213.183 97.4989 212.91 97.4989 212.61C97.4989 212.29 97.4356 212.013 97.3089 211.78C97.1889 211.54 97.0189 211.353 96.7989 211.22C96.5856 211.086 96.3356 211.02 96.0489 211.02C95.7022 211.02 95.4022 211.1 95.1489 211.26C94.9022 211.413 94.7222 211.61 94.6089 211.85H93.6389L94.2189 207.97H97.9889V208.84H94.9889L94.6189 210.8C94.7789 210.62 94.9922 210.473 95.2589 210.36C95.5322 210.246 95.8422 210.19 96.1889 210.19C96.5422 210.19 96.8589 210.253 97.1389 210.38C97.4189 210.5 97.6556 210.67 97.8489 210.89C98.0489 211.11 98.1989 211.366 98.2989 211.66C98.4056 211.953 98.4589 212.263 98.4589 212.59C98.4589 212.943 98.4022 213.27 98.2889 213.57C98.1756 213.87 98.0122 214.136 97.7989 214.37C97.5922 214.596 97.3356 214.773 97.0289 214.9C96.7289 215.026 96.3922 215.09 96.0189 215.09Z" fill="white"/>
<path d="M206.59 214.97V214.25C207.057 213.89 207.5 213.526 207.92 213.16C208.34 212.793 208.713 212.43 209.04 212.07C209.373 211.703 209.633 211.346 209.82 211C210.007 210.646 210.1 210.31 210.1 209.99C210.1 209.763 210.06 209.553 209.98 209.36C209.9 209.166 209.773 209.01 209.6 208.89C209.427 208.763 209.19 208.7 208.89 208.7C208.603 208.7 208.363 208.763 208.17 208.89C207.983 209.016 207.84 209.186 207.74 209.4C207.647 209.606 207.6 209.836 207.6 210.09H206.63C206.637 209.61 206.74 209.203 206.94 208.87C207.14 208.536 207.41 208.283 207.75 208.11C208.097 207.936 208.483 207.85 208.91 207.85C209.357 207.85 209.743 207.933 210.07 208.1C210.397 208.26 210.65 208.496 210.83 208.81C211.01 209.116 211.1 209.493 211.1 209.94C211.1 210.26 211.037 210.58 210.91 210.9C210.783 211.213 210.61 211.52 210.39 211.82C210.177 212.12 209.937 212.41 209.67 212.69C209.403 212.963 209.127 213.223 208.84 213.47C208.56 213.716 208.29 213.94 208.03 214.14H211.32V214.97H206.59ZM215.153 215.09C214.533 215.09 214 214.94 213.553 214.64C213.107 214.333 212.763 213.91 212.523 213.37C212.283 212.823 212.163 212.19 212.163 211.47C212.163 210.75 212.283 210.12 212.523 209.58C212.763 209.033 213.107 208.61 213.553 208.31C214 208.003 214.533 207.85 215.153 207.85C215.773 207.85 216.303 208.003 216.743 208.31C217.19 208.61 217.53 209.033 217.763 209.58C218.003 210.12 218.123 210.75 218.123 211.47C218.123 212.19 218.003 212.823 217.763 213.37C217.53 213.91 217.19 214.333 216.743 214.64C216.303 214.94 215.773 215.09 215.153 215.09ZM215.153 214.2C215.527 214.2 215.86 214.09 216.153 213.87C216.453 213.65 216.687 213.336 216.853 212.93C217.02 212.523 217.103 212.036 217.103 211.47C217.103 210.903 217.02 210.416 216.853 210.01C216.687 209.603 216.453 209.293 216.153 209.08C215.86 208.86 215.527 208.75 215.153 208.75C214.773 208.75 214.433 208.86 214.133 209.08C213.833 209.293 213.6 209.603 213.433 210.01C213.267 210.416 213.183 210.903 213.183 211.47C213.183 212.036 213.267 212.523 213.433 212.93C213.6 213.336 213.833 213.65 214.133 213.87C214.433 214.09 214.773 214.2 215.153 214.2ZM220.128 214.97V209.1L218.908 209.41V208.66L220.498 207.97H221.148V214.97H220.128ZM224.919 215.09C224.466 215.09 224.079 215.003 223.759 214.83C223.439 214.65 223.186 214.413 222.999 214.12C222.812 213.82 222.699 213.496 222.659 213.15H223.589C223.656 213.496 223.806 213.766 224.039 213.96C224.272 214.146 224.569 214.24 224.929 214.24C225.262 214.24 225.556 214.14 225.809 213.94C226.062 213.74 226.266 213.436 226.419 213.03C226.572 212.623 226.659 212.11 226.679 211.49C226.686 211.47 226.689 211.45 226.689 211.43C226.689 211.41 226.689 211.39 226.689 211.37C226.582 211.57 226.436 211.753 226.249 211.92C226.062 212.086 225.842 212.22 225.589 212.32C225.342 212.413 225.066 212.46 224.759 212.46C224.366 212.46 223.996 212.37 223.649 212.19C223.309 212.003 223.029 211.74 222.809 211.4C222.596 211.06 222.489 210.663 222.489 210.21C222.489 209.803 222.586 209.42 222.779 209.06C222.979 208.7 223.259 208.41 223.619 208.19C223.986 207.963 224.416 207.85 224.909 207.85C225.422 207.85 225.852 207.946 226.199 208.14C226.552 208.326 226.832 208.583 227.039 208.91C227.252 209.23 227.406 209.59 227.499 209.99C227.599 210.383 227.649 210.79 227.649 211.21C227.649 211.976 227.542 212.653 227.329 213.24C227.116 213.82 226.806 214.273 226.399 214.6C225.992 214.926 225.499 215.09 224.919 215.09ZM224.979 211.61C225.266 211.61 225.522 211.546 225.749 211.42C225.976 211.286 226.156 211.11 226.289 210.89C226.422 210.67 226.489 210.426 226.489 210.16C226.489 209.88 226.422 209.633 226.289 209.42C226.156 209.2 225.972 209.03 225.739 208.91C225.512 208.783 225.256 208.72 224.969 208.72C224.689 208.72 224.436 208.783 224.209 208.91C223.982 209.03 223.802 209.2 223.669 209.42C223.542 209.633 223.479 209.883 223.479 210.17C223.479 210.456 223.542 210.71 223.669 210.93C223.802 211.143 223.982 211.31 224.209 211.43C224.436 211.55 224.692 211.61 224.979 211.61Z" fill="white"/>
<path d="M144.59 214.97V214.25C145.057 213.89 145.5 213.526 145.92 213.16C146.34 212.793 146.713 212.43 147.04 212.07C147.373 211.703 147.633 211.346 147.82 211C148.007 210.646 148.1 210.31 148.1 209.99C148.1 209.763 148.06 209.553 147.98 209.36C147.9 209.166 147.773 209.01 147.6 208.89C147.427 208.763 147.19 208.7 146.89 208.7C146.603 208.7 146.363 208.763 146.17 208.89C145.983 209.016 145.84 209.186 145.74 209.4C145.647 209.606 145.6 209.836 145.6 210.09H144.63C144.637 209.61 144.74 209.203 144.94 208.87C145.14 208.536 145.41 208.283 145.75 208.11C146.097 207.936 146.483 207.85 146.91 207.85C147.357 207.85 147.743 207.933 148.07 208.1C148.397 208.26 148.65 208.496 148.83 208.81C149.01 209.116 149.1 209.493 149.1 209.94C149.1 210.26 149.037 210.58 148.91 210.9C148.783 211.213 148.61 211.52 148.39 211.82C148.177 212.12 147.937 212.41 147.67 212.69C147.403 212.963 147.127 213.223 146.84 213.47C146.56 213.716 146.29 213.94 146.03 214.14H149.32V214.97H144.59ZM153.153 215.09C152.533 215.09 152 214.94 151.553 214.64C151.107 214.333 150.763 213.91 150.523 213.37C150.283 212.823 150.163 212.19 150.163 211.47C150.163 210.75 150.283 210.12 150.523 209.58C150.763 209.033 151.107 208.61 151.553 208.31C152 208.003 152.533 207.85 153.153 207.85C153.773 207.85 154.303 208.003 154.743 208.31C155.19 208.61 155.53 209.033 155.763 209.58C156.003 210.12 156.123 210.75 156.123 211.47C156.123 212.19 156.003 212.823 155.763 213.37C155.53 213.91 155.19 214.333 154.743 214.64C154.303 214.94 153.773 215.09 153.153 215.09ZM153.153 214.2C153.527 214.2 153.86 214.09 154.153 213.87C154.453 213.65 154.687 213.336 154.853 212.93C155.02 212.523 155.103 212.036 155.103 211.47C155.103 210.903 155.02 210.416 154.853 210.01C154.687 209.603 154.453 209.293 154.153 209.08C153.86 208.86 153.527 208.75 153.153 208.75C152.773 208.75 152.433 208.86 152.133 209.08C151.833 209.293 151.6 209.603 151.433 210.01C151.267 210.416 151.183 210.903 151.183 211.47C151.183 212.036 151.267 212.523 151.433 212.93C151.6 213.336 151.833 213.65 152.133 213.87C152.433 214.09 152.773 214.2 153.153 214.2ZM158.128 214.97V209.1L156.908 209.41V208.66L158.498 207.97H159.148V214.97H158.128ZM161.179 214.97L163.849 208.83H160.149V207.97H164.879V208.7L162.219 214.97H161.179Z" fill="white"/>
<path d="M269.59 214.97V214.25C270.057 213.89 270.5 213.526 270.92 213.16C271.34 212.793 271.713 212.43 272.04 212.07C272.373 211.703 272.633 211.346 272.82 211C273.007 210.646 273.1 210.31 273.1 209.99C273.1 209.763 273.06 209.553 272.98 209.36C272.9 209.166 272.773 209.01 272.6 208.89C272.427 208.763 272.19 208.7 271.89 208.7C271.603 208.7 271.363 208.763 271.17 208.89C270.983 209.016 270.84 209.186 270.74 209.4C270.647 209.606 270.6 209.836 270.6 210.09H269.63C269.637 209.61 269.74 209.203 269.94 208.87C270.14 208.536 270.41 208.283 270.75 208.11C271.097 207.936 271.483 207.85 271.91 207.85C272.357 207.85 272.743 207.933 273.07 208.1C273.397 208.26 273.65 208.496 273.83 208.81C274.01 209.116 274.1 209.493 274.1 209.94C274.1 210.26 274.037 210.58 273.91 210.9C273.783 211.213 273.61 211.52 273.39 211.82C273.177 212.12 272.937 212.41 272.67 212.69C272.403 212.963 272.127 213.223 271.84 213.47C271.56 213.716 271.29 213.94 271.03 214.14H274.32V214.97H269.59ZM278.153 215.09C277.533 215.09 277 214.94 276.553 214.64C276.107 214.333 275.763 213.91 275.523 213.37C275.283 212.823 275.163 212.19 275.163 211.47C275.163 210.75 275.283 210.12 275.523 209.58C275.763 209.033 276.107 208.61 276.553 208.31C277 208.003 277.533 207.85 278.153 207.85C278.773 207.85 279.303 208.003 279.743 208.31C280.19 208.61 280.53 209.033 280.763 209.58C281.003 210.12 281.123 210.75 281.123 211.47C281.123 212.19 281.003 212.823 280.763 213.37C280.53 213.91 280.19 214.333 279.743 214.64C279.303 214.94 278.773 215.09 278.153 215.09ZM278.153 214.2C278.527 214.2 278.86 214.09 279.153 213.87C279.453 213.65 279.687 213.336 279.853 212.93C280.02 212.523 280.103 212.036 280.103 211.47C280.103 210.903 280.02 210.416 279.853 210.01C279.687 209.603 279.453 209.293 279.153 209.08C278.86 208.86 278.527 208.75 278.153 208.75C277.773 208.75 277.433 208.86 277.133 209.08C276.833 209.293 276.6 209.603 276.433 210.01C276.267 210.416 276.183 210.903 276.183 211.47C276.183 212.036 276.267 212.523 276.433 212.93C276.6 213.336 276.833 213.65 277.133 213.87C277.433 214.09 277.773 214.2 278.153 214.2ZM282.11 214.97V214.25C282.576 213.89 283.02 213.526 283.44 213.16C283.86 212.793 284.233 212.43 284.56 212.07C284.893 211.703 285.153 211.346 285.34 211C285.526 210.646 285.62 210.31 285.62 209.99C285.62 209.763 285.58 209.553 285.5 209.36C285.42 209.166 285.293 209.01 285.12 208.89C284.946 208.763 284.71 208.7 284.41 208.7C284.123 208.7 283.883 208.763 283.69 208.89C283.503 209.016 283.36 209.186 283.26 209.4C283.166 209.606 283.12 209.836 283.12 210.09H282.15C282.156 209.61 282.26 209.203 282.46 208.87C282.66 208.536 282.93 208.283 283.27 208.11C283.616 207.936 284.003 207.85 284.43 207.85C284.876 207.85 285.263 207.933 285.59 208.1C285.916 208.26 286.17 208.496 286.35 208.81C286.53 209.116 286.62 209.493 286.62 209.94C286.62 210.26 286.556 210.58 286.43 210.9C286.303 211.213 286.13 211.52 285.91 211.82C285.696 212.12 285.456 212.41 285.19 212.69C284.923 212.963 284.646 213.223 284.36 213.47C284.08 213.716 283.81 213.94 283.55 214.14H286.84V214.97H282.11ZM288.821 214.97V209.1L287.601 209.41V208.66L289.191 207.97H289.841V214.97H288.821Z" fill="white"/>
<path d="M328.59 214.6V213.88C329.057 213.52 329.5 213.156 329.92 212.79C330.34 212.423 330.713 212.06 331.04 211.7C331.373 211.333 331.633 210.976 331.82 210.63C332.007 210.276 332.1 209.94 332.1 209.62C332.1 209.393 332.06 209.183 331.98 208.99C331.9 208.796 331.773 208.64 331.6 208.52C331.427 208.393 331.19 208.33 330.89 208.33C330.603 208.33 330.363 208.393 330.17 208.52C329.983 208.646 329.84 208.816 329.74 209.03C329.647 209.236 329.6 209.466 329.6 209.72H328.63C328.637 209.24 328.74 208.833 328.94 208.5C329.14 208.166 329.41 207.913 329.75 207.74C330.097 207.566 330.483 207.48 330.91 207.48C331.357 207.48 331.743 207.563 332.07 207.73C332.397 207.89 332.65 208.126 332.83 208.44C333.01 208.746 333.1 209.123 333.1 209.57C333.1 209.89 333.037 210.21 332.91 210.53C332.783 210.843 332.61 211.15 332.39 211.45C332.177 211.75 331.937 212.04 331.67 212.32C331.403 212.593 331.127 212.853 330.84 213.1C330.56 213.346 330.29 213.57 330.03 213.77H333.32V214.6H328.59ZM337.153 214.72C336.533 214.72 336 214.57 335.553 214.27C335.107 213.963 334.763 213.54 334.523 213C334.283 212.453 334.163 211.82 334.163 211.1C334.163 210.38 334.283 209.75 334.523 209.21C334.763 208.663 335.107 208.24 335.553 207.94C336 207.633 336.533 207.48 337.153 207.48C337.773 207.48 338.303 207.633 338.743 207.94C339.19 208.24 339.53 208.663 339.763 209.21C340.003 209.75 340.123 210.38 340.123 211.1C340.123 211.82 340.003 212.453 339.763 213C339.53 213.54 339.19 213.963 338.743 214.27C338.303 214.57 337.773 214.72 337.153 214.72ZM337.153 213.83C337.527 213.83 337.86 213.72 338.153 213.5C338.453 213.28 338.687 212.966 338.853 212.56C339.02 212.153 339.103 211.666 339.103 211.1C339.103 210.533 339.02 210.046 338.853 209.64C338.687 209.233 338.453 208.923 338.153 208.71C337.86 208.49 337.527 208.38 337.153 208.38C336.773 208.38 336.433 208.49 336.133 208.71C335.833 208.923 335.6 209.233 335.433 209.64C335.267 210.046 335.183 210.533 335.183 211.1C335.183 211.666 335.267 212.153 335.433 212.56C335.6 212.966 335.833 213.28 336.133 213.5C336.433 213.72 336.773 213.83 337.153 213.83ZM341.11 214.6V213.88C341.576 213.52 342.02 213.156 342.44 212.79C342.86 212.423 343.233 212.06 343.56 211.7C343.893 211.333 344.153 210.976 344.34 210.63C344.526 210.276 344.62 209.94 344.62 209.62C344.62 209.393 344.58 209.183 344.5 208.99C344.42 208.796 344.293 208.64 344.12 208.52C343.946 208.393 343.71 208.33 343.41 208.33C343.123 208.33 342.883 208.393 342.69 208.52C342.503 208.646 342.36 208.816 342.26 209.03C342.166 209.236 342.12 209.466 342.12 209.72H341.15C341.156 209.24 341.26 208.833 341.46 208.5C341.66 208.166 341.93 207.913 342.27 207.74C342.616 207.566 343.003 207.48 343.43 207.48C343.876 207.48 344.263 207.563 344.59 207.73C344.916 207.89 345.17 208.126 345.35 208.44C345.53 208.746 345.62 209.123 345.62 209.57C345.62 209.89 345.556 210.21 345.43 210.53C345.303 210.843 345.13 211.15 344.91 211.45C344.696 211.75 344.456 212.04 344.19 212.32C343.923 212.593 343.646 212.853 343.36 213.1C343.08 213.346 342.81 213.57 342.55 213.77H345.84V214.6H341.11ZM350.064 214.6V213.17H346.554V212.39L349.904 207.6H351.054V212.3H352.054V213.17H351.054V214.6H350.064ZM347.644 212.3H350.124V208.7L347.644 212.3Z" fill="white"/>
<path d="M77 187C87.5463 164.5 114.433 133.78 142.201 156.741C176.912 185.442 203.021 176.938 218.994 145.048C234.967 113.158 260.77 80.7367 276.436 145.048C292.101 209.359 304.388 173.749 310.532 151.958C316.675 130.166 343.092 113.69 352 162.588" stroke="white" stroke-width="4" stroke-linecap="round"/>
<defs>
<filter id="filter0_d_771_2121" x="0.700001" y="0.700001" width="433.6" height="299.6" filterUnits="userSpaceOnUse" color-interpolation-filters="sRGB">
<feFlood flood-opacity="0" result="BackgroundImageFix"/>
<feColorMatrix in="SourceAlpha" type="matrix" values="0 0 0 0 0 0 0 0 0 0 0 0 0 0 0 0 0 0 127 0" result="hardAlpha"/>
<feOffset dy="12"/>
<feGaussianBlur stdDeviation="20.65"/>
<feComposite in2="hardAlpha" operator="out"/>
<feColorMatrix type="matrix" values="0 0 0 0 0.34902 0 0 0 0 0.403922 0 0 0 0 1 0 0 0 0.6 0"/>
<feBlend mode="normal" in2="BackgroundImageFix" result="effect1_dropShadow_771_2121"/>
<feBlend mode="normal" in="SourceGraphic" in2="effect1_dropShadow_771_2121" result="shape"/>
</filter>
<linearGradient id="paint0_linear_771_2121" x1="71.0233" y1="214.681" x2="369.86" y2="134.139" gradientUnits="userSpaceOnUse">
<stop stop-color="#5967FF"/>
<stop offset="1" stop-color="#9A3BFF"/>
</linearGradient>
</defs>
</svg>
