<svg width="398" height="160" viewBox="0 0 398 160" fill="none" xmlns="http://www.w3.org/2000/svg">
<g filter="url(#filter0_d_771_2166)">
<path d="M11.001 97C11.001 103.627 16.3736 109 23.001 109H335.001C341.628 109 347.001 103.627 347.001 97V23C347.001 16.3726 341.628 11 335.001 11H23.001C16.3736 11 11.001 16.3726 11.001 23V97Z" fill="white"/>
<path d="M23.001 108.5H335.001C341.352 108.5 346.501 103.351 346.501 97V23C346.501 16.6487 341.352 11.5 335.001 11.5H23.001C16.6497 11.5 11.501 16.6487 11.501 23V97C11.501 103.351 16.6497 108.5 23.001 108.5Z" stroke="#E1E6F4"/>
</g>
<path d="M111.171 50H109.07L113.781 36.9043H116.066L120.769 50H118.677L114.968 39.2861H114.862L111.171 50ZM111.522 44.876H118.316V46.5283H111.522V44.876ZM123.682 36.9043V50H121.705V36.9043H123.682ZM132.155 50.2109C131.534 50.2109 130.972 50.0967 130.468 49.8682C129.964 49.6338 129.565 49.2939 129.272 48.8486C128.98 48.4033 128.833 47.8613 128.833 47.2227C128.833 46.666 128.939 46.2119 129.149 45.8604C129.366 45.5029 129.656 45.2188 130.02 45.0078C130.383 44.7969 130.787 44.6387 131.232 44.5332C131.678 44.4277 132.135 44.3457 132.604 44.2871C133.195 44.2227 133.673 44.167 134.036 44.1201C134.399 44.0732 134.663 44 134.827 43.9004C134.997 43.7949 135.082 43.6279 135.082 43.3994V43.3555C135.082 42.7988 134.924 42.3682 134.607 42.0635C134.297 41.7588 133.834 41.6064 133.219 41.6064C132.58 41.6064 132.073 41.7471 131.698 42.0283C131.329 42.3037 131.074 42.6172 130.934 42.9688L129.132 42.5557C129.349 41.958 129.662 41.4775 130.072 41.1143C130.488 40.7451 130.963 40.4756 131.496 40.3057C132.035 40.1357 132.598 40.0508 133.184 40.0508C133.576 40.0508 133.992 40.0977 134.432 40.1914C134.871 40.2793 135.284 40.4463 135.671 40.6924C136.064 40.9326 136.383 41.2783 136.629 41.7295C136.875 42.1807 136.998 42.7637 136.998 43.4785V50H135.126V48.6553H135.056C134.939 48.8955 134.754 49.1357 134.502 49.376C134.256 49.6162 133.939 49.8154 133.553 49.9736C133.166 50.1318 132.7 50.2109 132.155 50.2109ZM132.568 48.6816C133.102 48.6816 133.556 48.5791 133.931 48.374C134.306 48.1631 134.593 47.8877 134.792 47.5479C134.991 47.208 135.091 46.8477 135.091 46.4668V45.1924C135.021 45.2568 134.889 45.3184 134.695 45.377C134.502 45.4355 134.282 45.4854 134.036 45.5264C133.79 45.5674 133.55 45.6055 133.315 45.6406C133.081 45.6699 132.885 45.6934 132.727 45.7109C132.357 45.7637 132.021 45.8457 131.716 45.957C131.411 46.0625 131.165 46.2207 130.978 46.4316C130.796 46.6367 130.705 46.9092 130.705 47.249C130.705 47.7236 130.881 48.0811 131.232 48.3213C131.584 48.5615 132.029 48.6816 132.568 48.6816ZM142.751 53.8848C141.579 53.8848 140.656 53.665 139.982 53.2256C139.308 52.7861 138.843 52.2646 138.585 51.6611L140.219 50.9844C140.337 51.1719 140.492 51.3711 140.685 51.582C140.884 51.793 141.151 51.9717 141.485 52.1182C141.819 52.2646 142.25 52.3379 142.777 52.3379C143.498 52.3379 144.095 52.1621 144.57 51.8105C145.045 51.4648 145.282 50.9082 145.282 50.1406V48.2158H145.15C145.045 48.4209 144.884 48.6523 144.667 48.9102C144.45 49.1621 144.154 49.3818 143.779 49.5693C143.404 49.7568 142.915 49.8506 142.311 49.8506C141.538 49.8506 140.841 49.6689 140.219 49.3057C139.604 48.9365 139.112 48.3975 138.743 47.6885C138.38 46.9736 138.198 46.0947 138.198 45.0518C138.198 44.0088 138.377 43.1152 138.734 42.3711C139.097 41.6211 139.59 41.0469 140.211 40.6484C140.832 40.25 141.538 40.0508 142.329 40.0508C142.938 40.0508 143.43 40.1533 143.805 40.3584C144.186 40.5576 144.482 40.792 144.693 41.0615C144.904 41.3311 145.068 41.5684 145.185 41.7734H145.326V40.1738H147.18V50.2197C147.18 51.0635 146.984 51.7549 146.592 52.2939C146.205 52.833 145.677 53.2314 145.009 53.4893C144.342 53.7529 143.589 53.8848 142.751 53.8848ZM142.733 48.2598C143.559 48.2598 144.192 47.9756 144.632 47.4072C145.077 46.833 145.3 46.0391 145.3 45.0254C145.3 44.3633 145.203 43.7832 145.009 43.2852C144.816 42.7812 144.529 42.3887 144.148 42.1074C143.767 41.8203 143.296 41.6768 142.733 41.6768C142.159 41.6768 141.678 41.8262 141.292 42.125C140.911 42.418 140.624 42.8193 140.43 43.3291C140.237 43.833 140.14 44.3984 140.14 45.0254C140.14 45.6641 140.237 46.2295 140.43 46.7217C140.624 47.208 140.914 47.5859 141.301 47.8555C141.693 48.125 142.171 48.2598 142.733 48.2598ZM153.056 50.2021C152.095 50.2021 151.263 49.9941 150.56 49.5781C149.857 49.1621 149.315 48.5762 148.934 47.8203C148.559 47.0586 148.371 46.1709 148.371 45.1572C148.371 44.1494 148.556 43.2617 148.925 42.4941C149.3 41.7266 149.825 41.1289 150.498 40.7012C151.178 40.2676 151.975 40.0508 152.889 40.0508C153.446 40.0508 153.985 40.1416 154.506 40.3232C155.028 40.5049 155.496 40.792 155.912 41.1846C156.329 41.5771 156.657 42.0869 156.897 42.7139C157.143 43.3408 157.266 44.0967 157.266 44.9814V45.667H149.453V44.2344H156.282L155.394 44.709C155.394 44.1055 155.3 43.5723 155.113 43.1094C154.925 42.6465 154.644 42.2861 154.269 42.0283C153.9 41.7646 153.44 41.6328 152.889 41.6328C152.338 41.6328 151.867 41.7646 151.474 42.0283C151.087 42.292 150.791 42.6406 150.586 43.0742C150.381 43.5078 150.279 43.9824 150.279 44.498V45.4736C150.279 46.1475 150.396 46.7188 150.63 47.1875C150.865 47.6562 151.19 48.0137 151.606 48.2598C152.028 48.5059 152.517 48.6289 153.074 48.6289C153.437 48.6289 153.765 48.5762 154.058 48.4707C154.357 48.3652 154.615 48.207 154.831 47.9961C155.048 47.7852 155.212 47.5244 155.324 47.2139L157.134 47.5566C156.988 48.084 156.73 48.5469 156.361 48.9453C155.992 49.3438 155.526 49.6543 154.963 49.877C154.407 50.0938 153.771 50.2021 153.056 50.2021ZM160.32 44.1729V50H158.422V40.1738H160.268V41.791H160.399C160.622 41.2578 160.971 40.8359 161.445 40.5254C161.92 40.209 162.529 40.0508 163.274 40.0508C163.941 40.0508 164.524 40.1914 165.023 40.4727C165.526 40.748 165.916 41.1611 166.191 41.7119C166.473 42.2627 166.613 42.9453 166.613 43.7598V50H164.715V43.9883C164.715 43.2793 164.527 42.7227 164.152 42.3184C163.777 41.9082 163.268 41.7031 162.623 41.7031C162.184 41.7031 161.788 41.8027 161.437 42.002C161.091 42.1953 160.818 42.4736 160.619 42.8369C160.42 43.2002 160.32 43.6455 160.32 44.1729ZM172.832 40.1738V41.7119H167.47V40.1738H172.832ZM168.903 37.8359H170.81V47.1172C170.81 47.5684 170.904 47.8994 171.092 48.1104C171.279 48.3154 171.581 48.418 171.997 48.418C172.096 48.418 172.202 48.4121 172.313 48.4004C172.43 48.3887 172.548 48.3711 172.665 48.3477L173.025 49.9297C172.832 49.9941 172.621 50.0439 172.392 50.0791C172.164 50.1143 171.935 50.1318 171.707 50.1318C170.857 50.1318 170.178 49.8945 169.668 49.4199C169.158 48.9395 168.903 48.3008 168.903 47.5039V37.8359ZM182.078 50.2021C181.117 50.2021 180.285 49.9941 179.582 49.5781C178.879 49.1621 178.337 48.5762 177.956 47.8203C177.581 47.0586 177.394 46.1709 177.394 45.1572C177.394 44.1494 177.578 43.2617 177.947 42.4941C178.322 41.7266 178.847 41.1289 179.521 40.7012C180.2 40.2676 180.997 40.0508 181.911 40.0508C182.468 40.0508 183.007 40.1416 183.528 40.3232C184.05 40.5049 184.519 40.792 184.935 41.1846C185.351 41.5771 185.679 42.0869 185.919 42.7139C186.165 43.3408 186.288 44.0967 186.288 44.9814V45.667H178.475V44.2344H185.304L184.416 44.709C184.416 44.1055 184.322 43.5723 184.135 43.1094C183.947 42.6465 183.666 42.2861 183.291 42.0283C182.922 41.7646 182.462 41.6328 181.911 41.6328C181.36 41.6328 180.889 41.7646 180.496 42.0283C180.109 42.292 179.814 42.6406 179.609 43.0742C179.403 43.5078 179.301 43.9824 179.301 44.498V45.4736C179.301 46.1475 179.418 46.7188 179.652 47.1875C179.887 47.6562 180.212 48.0137 180.628 48.2598C181.05 48.5059 181.539 48.6289 182.096 48.6289C182.459 48.6289 182.787 48.5762 183.08 48.4707C183.379 48.3652 183.637 48.207 183.854 47.9961C184.07 47.7852 184.234 47.5244 184.346 47.2139L186.156 47.5566C186.01 48.084 185.752 48.5469 185.383 48.9453C185.014 49.3438 184.548 49.6543 183.985 49.877C183.429 50.0938 182.793 50.2021 182.078 50.2021ZM192.12 40.1738V41.7119H186.574V40.1738H192.12ZM188.086 50V39.0312C188.086 38.4219 188.221 37.915 188.49 37.5107C188.765 37.1006 189.123 36.7959 189.562 36.5967C190.008 36.3916 190.485 36.2891 190.995 36.2891C191.387 36.2891 191.721 36.3213 191.997 36.3857C192.272 36.4502 192.474 36.5059 192.603 36.5527L192.146 38.0996C192.058 38.0703 191.944 38.0381 191.804 38.0029C191.669 37.9678 191.499 37.9502 191.294 37.9502C190.831 37.9502 190.497 38.0674 190.292 38.3018C190.087 38.5303 189.984 38.8643 189.984 39.3037V50H188.086ZM197.829 40.1738V41.7119H192.283V40.1738H197.829ZM193.794 50V39.0312C193.794 38.4219 193.929 37.915 194.199 37.5107C194.474 37.1006 194.832 36.7959 195.271 36.5967C195.716 36.3916 196.194 36.2891 196.704 36.2891C197.096 36.2891 197.43 36.3213 197.706 36.3857C197.981 36.4502 198.183 36.5059 198.312 36.5527L197.855 38.0996C197.767 38.0703 197.653 38.0381 197.512 38.0029C197.377 37.9678 197.207 37.9502 197.002 37.9502C196.54 37.9502 196.206 38.0674 196 38.3018C195.795 38.5303 195.693 38.8643 195.693 39.3037V50H193.794ZM198.861 50V40.1738H200.76V50H198.861ZM199.819 38.6621C199.486 38.6621 199.201 38.5508 198.967 38.3281C198.733 38.1055 198.615 37.8389 198.615 37.5283C198.615 37.2119 198.733 36.9424 198.967 36.7197C199.201 36.4971 199.486 36.3857 199.819 36.3857C200.148 36.3857 200.429 36.4971 200.663 36.7197C200.903 36.9424 201.024 37.2119 201.024 37.5283C201.024 37.8389 200.903 38.1055 200.663 38.3281C200.429 38.5508 200.148 38.6621 199.819 38.6621ZM206.53 50.2021C205.587 50.2021 204.772 49.9854 204.087 49.5518C203.401 49.1182 202.874 48.5205 202.505 47.7588C202.136 46.9971 201.951 46.124 201.951 45.1396C201.951 44.1377 202.139 43.2559 202.514 42.4941C202.894 41.7266 203.425 41.1289 204.104 40.7012C204.79 40.2676 205.593 40.0508 206.513 40.0508C207.263 40.0508 207.928 40.1885 208.508 40.4639C209.094 40.7334 209.565 41.1172 209.923 41.6152C210.286 42.1133 210.5 42.6934 210.564 43.3555H208.701C208.637 43.0449 208.511 42.7607 208.323 42.5029C208.141 42.2451 207.901 42.04 207.602 41.8877C207.304 41.7354 206.949 41.6592 206.539 41.6592C206.006 41.6592 205.54 41.7998 205.141 42.0811C204.749 42.3564 204.441 42.752 204.219 43.2676C203.996 43.7832 203.885 44.3926 203.885 45.0957C203.885 45.8047 203.993 46.4229 204.21 46.9502C204.427 47.4775 204.734 47.8848 205.133 48.1719C205.537 48.4531 206.006 48.5938 206.539 48.5938C207.09 48.5938 207.558 48.4414 207.945 48.1367C208.338 47.832 208.59 47.416 208.701 46.8887H210.564C210.5 47.5273 210.295 48.0957 209.949 48.5938C209.603 49.0918 209.14 49.4844 208.56 49.7715C207.98 50.0586 207.304 50.2021 206.53 50.2021ZM211.738 50V40.1738H213.636V50H211.738ZM212.696 38.6621C212.362 38.6621 212.078 38.5508 211.843 38.3281C211.609 38.1055 211.492 37.8389 211.492 37.5283C211.492 37.2119 211.609 36.9424 211.843 36.7197C212.078 36.4971 212.362 36.3857 212.696 36.3857C213.024 36.3857 213.305 36.4971 213.54 36.7197C213.78 36.9424 213.9 37.2119 213.9 37.5283C213.9 37.8389 213.78 38.1055 213.54 38.3281C213.305 38.5508 213.024 38.6621 212.696 38.6621ZM219.512 50.2021C218.551 50.2021 217.719 49.9941 217.016 49.5781C216.313 49.1621 215.771 48.5762 215.39 47.8203C215.015 47.0586 214.827 46.1709 214.827 45.1572C214.827 44.1494 215.012 43.2617 215.381 42.4941C215.756 41.7266 216.28 41.1289 216.954 40.7012C217.634 40.2676 218.431 40.0508 219.345 40.0508C219.902 40.0508 220.441 40.1416 220.962 40.3232C221.484 40.5049 221.952 40.792 222.368 41.1846C222.784 41.5771 223.113 42.0869 223.353 42.7139C223.599 43.3408 223.722 44.0967 223.722 44.9814V45.667H215.908V44.2344H222.738L221.85 44.709C221.85 44.1055 221.756 43.5723 221.569 43.1094C221.381 42.6465 221.1 42.2861 220.725 42.0283C220.356 41.7646 219.896 41.6328 219.345 41.6328C218.794 41.6328 218.322 41.7646 217.93 42.0283C217.543 42.292 217.247 42.6406 217.042 43.0742C216.837 43.5078 216.735 43.9824 216.735 44.498V45.4736C216.735 46.1475 216.852 46.7188 217.086 47.1875C217.321 47.6562 217.646 48.0137 218.062 48.2598C218.484 48.5059 218.973 48.6289 219.529 48.6289C219.893 48.6289 220.221 48.5762 220.514 48.4707C220.813 48.3652 221.071 48.207 221.287 47.9961C221.504 47.7852 221.668 47.5244 221.779 47.2139L223.59 47.5566C223.444 48.084 223.186 48.5469 222.817 48.9453C222.447 49.3438 221.982 49.6543 221.419 49.877C220.863 50.0938 220.227 50.2021 219.512 50.2021ZM226.776 44.1729V50H224.878V40.1738H226.724V41.791H226.855C227.078 41.2578 227.427 40.8359 227.901 40.5254C228.376 40.209 228.985 40.0508 229.729 40.0508C230.397 40.0508 230.98 40.1914 231.478 40.4727C231.982 40.748 232.372 41.1611 232.647 41.7119C232.929 42.2627 233.069 42.9453 233.069 43.7598V50H231.171V43.9883C231.171 43.2793 230.983 42.7227 230.608 42.3184C230.233 41.9082 229.724 41.7031 229.079 41.7031C228.64 41.7031 228.244 41.8027 227.892 42.002C227.547 42.1953 227.274 42.4736 227.075 42.8369C226.876 43.2002 226.776 43.6455 226.776 44.1729ZM238.839 50.2021C237.896 50.2021 237.082 49.9854 236.396 49.5518C235.711 49.1182 235.183 48.5205 234.814 47.7588C234.445 46.9971 234.26 46.124 234.26 45.1396C234.26 44.1377 234.448 43.2559 234.823 42.4941C235.204 41.7266 235.734 41.1289 236.414 40.7012C237.099 40.2676 237.902 40.0508 238.822 40.0508C239.572 40.0508 240.237 40.1885 240.817 40.4639C241.403 40.7334 241.875 41.1172 242.232 41.6152C242.595 42.1133 242.809 42.6934 242.874 43.3555H241.01C240.946 43.0449 240.82 42.7607 240.632 42.5029C240.451 42.2451 240.211 42.04 239.912 41.8877C239.613 41.7354 239.258 41.6592 238.848 41.6592C238.315 41.6592 237.849 41.7998 237.451 42.0811C237.058 42.3564 236.751 42.752 236.528 43.2676C236.305 43.7832 236.194 44.3926 236.194 45.0957C236.194 45.8047 236.302 46.4229 236.519 46.9502C236.736 47.4775 237.044 47.8848 237.442 48.1719C237.846 48.4531 238.315 48.5938 238.848 48.5938C239.399 48.5938 239.868 48.4414 240.254 48.1367C240.647 47.832 240.899 47.416 241.01 46.8887H242.874C242.809 47.5273 242.604 48.0957 242.258 48.5938C241.913 49.0918 241.45 49.4844 240.87 49.7715C240.29 50.0586 239.613 50.2021 238.839 50.2021ZM244.891 53.6738C244.604 53.6797 244.343 53.6592 244.109 53.6123C243.88 53.5713 243.704 53.5215 243.581 53.4629L244.047 51.9072L244.179 51.9424C244.665 52.0654 245.075 52.0566 245.409 51.916C245.749 51.7812 246.033 51.4033 246.262 50.7822L246.499 50.1318L242.913 40.1738H244.961L247.44 47.8027H247.545L250.032 40.1738H252.08L248.037 51.3008C247.85 51.8164 247.613 52.25 247.325 52.6016C247.038 52.959 246.693 53.2256 246.288 53.4014C245.89 53.583 245.424 53.6738 244.891 53.6738ZM264.13 42.582L262.399 42.8809C262.288 42.5527 262.08 42.251 261.775 41.9756C261.476 41.7002 261.028 41.5625 260.43 41.5625C259.891 41.5625 259.44 41.6855 259.077 41.9316C258.719 42.1719 258.541 42.4795 258.541 42.8545C258.541 43.1826 258.661 43.4492 258.901 43.6543C259.147 43.8594 259.537 44.0234 260.07 44.1465L261.643 44.498C262.54 44.7031 263.211 45.0254 263.656 45.4648C264.101 45.9043 264.324 46.4668 264.324 47.1523C264.324 47.7441 264.154 48.2715 263.814 48.7344C263.474 49.1914 263.003 49.5518 262.399 49.8154C261.796 50.0732 261.098 50.2021 260.307 50.2021C259.206 50.2021 258.309 49.9648 257.618 49.4902C256.926 49.0156 256.502 48.3477 256.343 47.4863L258.18 47.2051C258.297 47.6855 258.535 48.0488 258.892 48.2949C259.255 48.541 259.724 48.6641 260.298 48.6641C260.92 48.6641 261.418 48.5322 261.793 48.2686C262.173 48.0049 262.364 47.6855 262.364 47.3105C262.364 46.6895 261.901 46.2705 260.975 46.0537L259.314 45.6846C258.394 45.4736 257.714 45.1426 257.275 44.6914C256.841 44.2344 256.625 43.6602 256.625 42.9688C256.625 42.3887 256.786 41.8789 257.108 41.4395C257.436 41 257.884 40.6602 258.453 40.4199C259.027 40.1738 259.68 40.0508 260.413 40.0508C261.479 40.0508 262.314 40.2822 262.918 40.7451C263.527 41.208 263.931 41.8203 264.13 42.582ZM269.602 50.2021C268.658 50.2021 267.844 49.9854 267.158 49.5518C266.473 49.1182 265.946 48.5205 265.576 47.7588C265.207 46.9971 265.023 46.124 265.023 45.1396C265.023 44.1377 265.21 43.2559 265.585 42.4941C265.966 41.7266 266.496 41.1289 267.176 40.7012C267.862 40.2676 268.664 40.0508 269.584 40.0508C270.334 40.0508 270.999 40.1885 271.579 40.4639C272.165 40.7334 272.637 41.1172 272.994 41.6152C273.358 42.1133 273.572 42.6934 273.636 43.3555H271.773C271.708 43.0449 271.582 42.7607 271.395 42.5029C271.213 42.2451 270.973 42.04 270.674 41.8877C270.375 41.7354 270.021 41.6592 269.611 41.6592C269.077 41.6592 268.612 41.7998 268.213 42.0811C267.821 42.3564 267.513 42.752 267.29 43.2676C267.068 43.7832 266.956 44.3926 266.956 45.0957C266.956 45.8047 267.065 46.4229 267.282 46.9502C267.498 47.4775 267.806 47.8848 268.204 48.1719C268.609 48.4531 269.077 48.5938 269.611 48.5938C270.161 48.5938 270.63 48.4414 271.017 48.1367C271.409 47.832 271.661 47.416 271.773 46.8887H273.636C273.572 47.5273 273.366 48.0957 273.021 48.5938C272.675 49.0918 272.212 49.4844 271.632 49.7715C271.052 50.0586 270.375 50.2021 269.602 50.2021ZM278.932 50.2021C278.012 50.2021 277.206 49.9912 276.515 49.5693C275.829 49.1475 275.296 48.5557 274.915 47.7939C274.54 47.0322 274.352 46.1475 274.352 45.1396C274.352 44.1201 274.54 43.2295 274.915 42.4678C275.296 41.7002 275.829 41.1055 276.515 40.6836C277.206 40.2617 278.012 40.0508 278.932 40.0508C279.857 40.0508 280.663 40.2617 281.349 40.6836C282.034 41.1055 282.567 41.7002 282.948 42.4678C283.329 43.2295 283.519 44.1201 283.519 45.1396C283.519 46.1475 283.329 47.0322 282.948 47.7939C282.567 48.5557 282.034 49.1475 281.349 49.5693C280.663 49.9912 279.857 50.2021 278.932 50.2021ZM278.932 48.5938C279.535 48.5938 280.033 48.4355 280.426 48.1191C280.818 47.8027 281.108 47.3838 281.296 46.8623C281.489 46.335 281.586 45.7607 281.586 45.1396C281.586 44.5068 281.489 43.9268 281.296 43.3994C281.108 42.8721 280.818 42.4502 280.426 42.1338C280.033 41.8174 279.535 41.6592 278.932 41.6592C278.334 41.6592 277.839 41.8174 277.446 42.1338C277.06 42.4502 276.769 42.8721 276.576 43.3994C276.383 43.9268 276.286 44.5068 276.286 45.1396C276.286 45.7607 276.383 46.335 276.576 46.8623C276.769 47.3838 277.06 47.8027 277.446 48.1191C277.839 48.4355 278.334 48.5938 278.932 48.5938ZM284.719 50V40.1738H286.556V41.7471H286.662C286.843 41.2197 287.16 40.8037 287.611 40.499C288.068 40.1885 288.584 40.0332 289.158 40.0332C289.275 40.0332 289.413 40.0391 289.571 40.0508C289.735 40.0566 289.867 40.0654 289.966 40.0771V41.9053C289.89 41.8818 289.753 41.8584 289.553 41.835C289.36 41.8115 289.164 41.7998 288.964 41.7998C288.513 41.7998 288.109 41.8965 287.752 42.0898C287.4 42.2773 287.122 42.5381 286.917 42.8721C286.717 43.2002 286.618 43.5811 286.618 44.0146V50H284.719ZM294.585 50.2021C293.624 50.2021 292.792 49.9941 292.089 49.5781C291.386 49.1621 290.844 48.5762 290.463 47.8203C290.088 47.0586 289.901 46.1709 289.901 45.1572C289.901 44.1494 290.085 43.2617 290.454 42.4941C290.829 41.7266 291.354 41.1289 292.028 40.7012C292.707 40.2676 293.504 40.0508 294.418 40.0508C294.975 40.0508 295.514 40.1416 296.035 40.3232C296.557 40.5049 297.026 40.792 297.442 41.1846C297.858 41.5771 298.186 42.0869 298.426 42.7139C298.672 43.3408 298.795 44.0967 298.795 44.9814V45.667H290.982V44.2344H297.811L296.923 44.709C296.923 44.1055 296.829 43.5723 296.642 43.1094C296.454 42.6465 296.173 42.2861 295.798 42.0283C295.429 41.7646 294.969 41.6328 294.418 41.6328C293.867 41.6328 293.396 41.7646 293.003 42.0283C292.617 42.292 292.321 42.6406 292.116 43.0742C291.91 43.5078 291.808 43.9824 291.808 44.498V45.4736C291.808 46.1475 291.925 46.7188 292.159 47.1875C292.394 47.6562 292.719 48.0137 293.135 48.2598C293.557 48.5059 294.046 48.6289 294.603 48.6289C294.966 48.6289 295.294 48.5762 295.587 48.4707C295.886 48.3652 296.144 48.207 296.361 47.9961C296.577 47.7852 296.742 47.5244 296.853 47.2139L298.663 47.5566C298.517 48.084 298.259 48.5469 297.89 48.9453C297.521 49.3438 297.055 49.6543 296.492 49.877C295.936 50.0938 295.3 50.2021 294.585 50.2021Z" fill="#071332"/>
<path opacity="0.69" d="M114.138 82.1997C113.214 82.1997 112.412 82.0558 111.731 81.7681C111.056 81.4748 110.527 81.057 110.146 80.5146C109.764 79.9723 109.551 79.3276 109.506 78.5806H111.382C111.421 79.0288 111.565 79.4023 111.814 79.7012C112.069 79.9945 112.398 80.2131 112.802 80.3569C113.206 80.5008 113.648 80.5728 114.13 80.5728C114.656 80.5728 115.126 80.4897 115.541 80.3237C115.956 80.1577 116.28 79.9253 116.512 79.6265C116.75 79.3221 116.869 78.9679 116.869 78.564C116.869 78.1987 116.764 77.8999 116.554 77.6675C116.349 77.4351 116.069 77.2441 115.715 77.0947C115.361 76.9398 114.963 76.8042 114.52 76.688L113.067 76.2896C112.071 76.0239 111.285 75.6283 110.71 75.1025C110.134 74.5713 109.847 73.8768 109.847 73.019C109.847 72.3052 110.038 71.6826 110.419 71.1514C110.807 70.6201 111.33 70.2078 111.988 69.9146C112.652 69.6157 113.397 69.4663 114.221 69.4663C115.062 69.4663 115.801 69.6157 116.438 69.9146C117.079 70.2078 117.586 70.6118 117.957 71.1265C118.333 71.6356 118.529 72.2194 118.546 72.8779H116.736C116.67 72.3079 116.404 71.8652 115.939 71.5498C115.48 71.2344 114.894 71.0767 114.18 71.0767C113.682 71.0767 113.244 71.1569 112.868 71.3174C112.497 71.4723 112.21 71.6882 112.005 71.9648C111.806 72.2415 111.706 72.5597 111.706 72.9194C111.706 73.3068 111.825 73.6222 112.063 73.8657C112.306 74.1092 112.6 74.3029 112.943 74.4468C113.292 74.5851 113.626 74.6986 113.947 74.7871L115.151 75.1108C115.544 75.2104 115.948 75.3433 116.363 75.5093C116.778 75.6753 117.162 75.8939 117.517 76.165C117.876 76.4307 118.164 76.7627 118.38 77.1611C118.601 77.554 118.712 78.0299 118.712 78.5889C118.712 79.2806 118.532 79.9004 118.172 80.4482C117.813 80.9906 117.292 81.4194 116.612 81.7349C115.931 82.0448 115.107 82.1997 114.138 82.1997ZM123.813 82.1914C122.922 82.1914 122.153 81.9867 121.505 81.5771C120.858 81.1676 120.36 80.6032 120.011 79.8838C119.663 79.1644 119.488 78.3398 119.488 77.4102C119.488 76.4639 119.665 75.631 120.019 74.9116C120.379 74.1867 120.88 73.6222 121.522 73.2183C122.169 72.8088 122.927 72.604 123.796 72.604C124.505 72.604 125.133 72.734 125.681 72.9941C126.234 73.2487 126.679 73.6112 127.017 74.0815C127.36 74.5519 127.562 75.0998 127.623 75.7251H125.863C125.802 75.4318 125.683 75.1634 125.506 74.9199C125.335 74.6764 125.108 74.4827 124.826 74.3389C124.543 74.195 124.209 74.123 123.821 74.123C123.318 74.123 122.878 74.2559 122.501 74.5215C122.131 74.7816 121.84 75.1551 121.63 75.6421C121.42 76.1291 121.314 76.7046 121.314 77.3687C121.314 78.0382 121.417 78.6221 121.622 79.1201C121.826 79.6182 122.117 80.0028 122.493 80.2739C122.875 80.5396 123.318 80.6724 123.821 80.6724C124.341 80.6724 124.784 80.5285 125.149 80.2407C125.52 79.953 125.758 79.5601 125.863 79.062H127.623C127.562 79.6652 127.368 80.202 127.042 80.6724C126.715 81.1427 126.278 81.5135 125.73 81.7847C125.183 82.0558 124.543 82.1914 123.813 82.1914ZM132.624 82.1914C131.756 82.1914 130.995 81.9922 130.342 81.5938C129.694 81.1953 129.191 80.6364 128.831 79.917C128.477 79.1976 128.3 78.362 128.3 77.4102C128.3 76.4473 128.477 75.6061 128.831 74.8867C129.191 74.1618 129.694 73.6001 130.342 73.2017C130.995 72.8032 131.756 72.604 132.624 72.604C133.499 72.604 134.26 72.8032 134.907 73.2017C135.555 73.6001 136.058 74.1618 136.418 74.8867C136.778 75.6061 136.957 76.4473 136.957 77.4102C136.957 78.362 136.778 79.1976 136.418 79.917C136.058 80.6364 135.555 81.1953 134.907 81.5938C134.26 81.9922 133.499 82.1914 132.624 82.1914ZM132.624 80.6724C133.194 80.6724 133.665 80.5229 134.035 80.2241C134.406 79.9253 134.68 79.5296 134.857 79.0371C135.04 78.5391 135.131 77.9967 135.131 77.4102C135.131 76.8125 135.04 76.2646 134.857 75.7666C134.68 75.2686 134.406 74.8701 134.035 74.5713C133.665 74.2725 133.194 74.123 132.624 74.123C132.06 74.123 131.592 74.2725 131.222 74.5713C130.856 74.8701 130.582 75.2686 130.4 75.7666C130.217 76.2646 130.126 76.8125 130.126 77.4102C130.126 77.9967 130.217 78.5391 130.4 79.0371C130.582 79.5296 130.856 79.9253 131.222 80.2241C131.592 80.5229 132.06 80.6724 132.624 80.6724ZM138.091 82.0005V72.7202H139.825V74.2061H139.925C140.097 73.708 140.395 73.3151 140.822 73.0273C141.253 72.734 141.74 72.5874 142.282 72.5874C142.393 72.5874 142.523 72.5929 142.673 72.604C142.828 72.6095 142.952 72.6178 143.046 72.6289V74.3555C142.974 74.3333 142.844 74.3112 142.656 74.2891C142.473 74.2669 142.288 74.2559 142.1 74.2559C141.674 74.2559 141.292 74.3472 140.954 74.5298C140.622 74.7069 140.359 74.9531 140.166 75.2686C139.978 75.5785 139.884 75.9382 139.884 76.3477V82.0005H138.091ZM147.408 82.1914C146.501 82.1914 145.715 81.995 145.051 81.6021C144.387 81.2091 143.875 80.6558 143.515 79.9419C143.161 79.2225 142.984 78.3841 142.984 77.4268C142.984 76.4749 143.158 75.6366 143.507 74.9116C143.861 74.1867 144.356 73.6222 144.993 73.2183C145.635 72.8088 146.387 72.604 147.251 72.604C147.776 72.604 148.285 72.6898 148.778 72.8613C149.271 73.0329 149.713 73.304 150.106 73.6748C150.499 74.0456 150.809 74.527 151.036 75.1191C151.268 75.7113 151.384 76.4251 151.384 77.2607V77.9082H144.005V76.5552H150.455L149.616 77.0034C149.616 76.4334 149.528 75.9299 149.351 75.4927C149.174 75.0555 148.908 74.7152 148.554 74.4717C148.205 74.2227 147.771 74.0981 147.251 74.0981C146.73 74.0981 146.285 74.2227 145.914 74.4717C145.549 74.7207 145.27 75.05 145.076 75.4595C144.882 75.869 144.785 76.3172 144.785 76.8042V77.7256C144.785 78.362 144.896 78.9015 145.117 79.3442C145.339 79.7869 145.646 80.1245 146.039 80.3569C146.437 80.5894 146.899 80.7056 147.425 80.7056C147.768 80.7056 148.078 80.6558 148.355 80.5562C148.637 80.4565 148.88 80.3071 149.085 80.1079C149.29 79.9087 149.445 79.6624 149.55 79.3691L151.26 79.6929C151.122 80.1909 150.878 80.6281 150.529 81.0044C150.181 81.3807 149.741 81.674 149.21 81.8843C148.684 82.089 148.084 82.1914 147.408 82.1914ZM161.545 75.999V77.5596H156.05V75.999H161.545ZM170.925 82.1665C170.377 82.1665 169.835 82.0697 169.298 81.876C168.761 81.6823 168.277 81.3613 167.846 80.9131C167.414 80.4593 167.065 79.8506 166.8 79.0869C166.54 78.3232 166.41 77.3742 166.41 76.2397C166.41 75.1606 166.517 74.2033 166.733 73.3677C166.955 72.5265 167.267 71.8182 167.671 71.2427C168.081 70.6616 168.573 70.2217 169.149 69.9229C169.724 69.6185 170.372 69.4663 171.091 69.4663C171.827 69.4663 172.48 69.613 173.05 69.9062C173.62 70.194 174.082 70.5924 174.436 71.1016C174.796 71.6107 175.02 72.1917 175.109 72.8447H173.283C173.155 72.3301 172.906 71.9123 172.536 71.5913C172.165 71.2648 171.683 71.1016 171.091 71.1016C170.184 71.1016 169.475 71.4972 168.966 72.2886C168.463 73.0744 168.211 74.1701 168.211 75.5757H168.302C168.518 75.2271 168.781 74.9282 169.091 74.6792C169.401 74.4246 169.746 74.231 170.128 74.0981C170.516 73.9653 170.928 73.8989 171.365 73.8989C172.079 73.8989 172.726 74.0732 173.307 74.4219C173.894 74.7705 174.359 75.252 174.702 75.8662C175.051 76.4749 175.225 77.175 175.225 77.9663C175.225 78.7521 175.045 79.4632 174.685 80.0996C174.331 80.736 173.83 81.2396 173.183 81.6104C172.541 81.9811 171.788 82.1665 170.925 82.1665ZM170.917 80.5977C171.393 80.5977 171.816 80.4814 172.187 80.249C172.563 80.0166 172.862 79.7039 173.083 79.311C173.305 78.9126 173.415 78.4699 173.415 77.9829C173.415 77.507 173.307 77.0754 173.092 76.688C172.881 76.3006 172.591 75.9935 172.22 75.7666C171.855 75.5342 171.434 75.418 170.958 75.418C170.488 75.418 170.062 75.5369 169.68 75.7749C169.298 76.0129 168.994 76.3283 168.767 76.7212C168.546 77.1141 168.435 77.5402 168.435 77.9995C168.435 78.4588 168.543 78.8877 168.759 79.2861C168.974 79.6846 169.268 80.0028 169.639 80.2407C170.015 80.4787 170.441 80.5977 170.917 80.5977ZM180.55 69.458C181.103 69.4635 181.646 69.5659 182.177 69.7651C182.714 69.9588 183.198 70.2798 183.63 70.728C184.067 71.1763 184.415 71.7822 184.676 72.5459C184.936 73.304 185.066 74.2503 185.066 75.3848C185.066 76.4639 184.958 77.424 184.742 78.2651C184.526 79.1063 184.213 79.8174 183.804 80.3984C183.4 80.9795 182.91 81.4222 182.335 81.7266C181.759 82.0254 181.115 82.1748 180.401 82.1748C179.665 82.1748 179.009 82.0282 178.433 81.7349C177.858 81.4416 177.393 81.0404 177.039 80.5312C176.685 80.0166 176.461 79.4272 176.366 78.7632H178.209C178.331 79.2889 178.577 79.7178 178.948 80.0498C179.324 80.3763 179.809 80.5396 180.401 80.5396C181.303 80.5396 182.005 80.1439 182.509 79.3525C183.018 78.5612 183.276 77.4572 183.281 76.0405H183.19C182.974 76.3892 182.711 76.6908 182.401 76.9453C182.091 77.1943 181.743 77.3853 181.355 77.5181C180.968 77.6509 180.558 77.7173 180.127 77.7173C179.407 77.7173 178.754 77.543 178.168 77.1943C177.581 76.8457 177.116 76.367 176.773 75.7583C176.43 75.144 176.256 74.444 176.25 73.6582C176.256 72.8724 176.436 72.1613 176.79 71.5249C177.15 70.8885 177.65 70.3849 178.292 70.0142C178.934 69.6379 179.687 69.4525 180.55 69.458ZM180.558 71.0352C180.088 71.0352 179.665 71.1514 179.288 71.3838C178.912 71.6162 178.616 71.9289 178.4 72.3218C178.184 72.7147 178.076 73.1519 178.076 73.6333C178.076 74.1147 178.179 74.5492 178.384 74.9365C178.594 75.3239 178.884 75.6338 179.255 75.8662C179.626 76.0931 180.046 76.2065 180.517 76.2065C180.993 76.2065 181.419 76.0876 181.795 75.8496C182.177 75.6061 182.481 75.2879 182.708 74.895C182.935 74.4966 183.049 74.0677 183.049 73.6084C183.049 73.1546 182.941 72.7313 182.725 72.3384C182.509 71.9455 182.213 71.63 181.837 71.3921C181.466 71.1541 181.04 71.0352 180.558 71.0352ZM192.781 79.6763V79.0288C192.781 78.5584 192.878 78.1296 193.072 77.7422C193.266 77.3548 193.551 77.0449 193.927 76.8125C194.303 76.5745 194.76 76.4556 195.297 76.4556C195.844 76.4556 196.304 76.5718 196.675 76.8042C197.045 77.0366 197.325 77.3493 197.513 77.7422C197.701 78.1296 197.795 78.5584 197.795 79.0288V79.6763C197.795 80.1466 197.698 80.5783 197.505 80.9712C197.316 81.3586 197.037 81.6685 196.666 81.9009C196.295 82.1333 195.839 82.2495 195.297 82.2495C194.754 82.2495 194.295 82.1333 193.919 81.9009C193.542 81.6685 193.257 81.3586 193.064 80.9712C192.876 80.5783 192.781 80.1466 192.781 79.6763ZM194.184 79.0288V79.6763C194.184 80.0249 194.267 80.3403 194.433 80.6226C194.599 80.9048 194.887 81.0459 195.297 81.0459C195.701 81.0459 195.983 80.9048 196.143 80.6226C196.304 80.3403 196.384 80.0249 196.384 79.6763V79.0288C196.384 78.6802 196.307 78.3675 196.152 78.0908C195.997 77.8086 195.712 77.6675 195.297 77.6675C194.893 77.6675 194.605 77.8086 194.433 78.0908C194.267 78.3675 194.184 78.6802 194.184 79.0288ZM186.564 72.604V71.9565C186.564 71.4862 186.661 71.0573 186.855 70.6699C187.054 70.277 187.339 69.9644 187.71 69.7319C188.086 69.4995 188.54 69.3833 189.071 69.3833C189.619 69.3833 190.078 69.4995 190.449 69.7319C190.825 69.9644 191.107 70.277 191.296 70.6699C191.484 71.0573 191.575 71.4862 191.57 71.9565V72.604C191.575 73.0688 191.481 73.4977 191.287 73.8906C191.094 74.278 190.811 74.5907 190.441 74.8286C190.07 75.061 189.613 75.1772 189.071 75.1772C188.529 75.1772 188.069 75.061 187.693 74.8286C187.322 74.5907 187.04 74.278 186.846 73.8906C186.658 73.4977 186.564 73.0688 186.564 72.604ZM187.967 71.9565V72.604C187.967 72.9526 188.05 73.2681 188.216 73.5503C188.382 73.8325 188.667 73.9709 189.071 73.9653C189.481 73.9709 189.765 73.8325 189.926 73.5503C190.086 73.2681 190.167 72.9526 190.167 72.604V71.9565C190.167 71.6079 190.089 71.2925 189.934 71.0103C189.779 70.728 189.492 70.5897 189.071 70.5952C188.673 70.5897 188.388 70.728 188.216 71.0103C188.05 71.2925 187.967 71.6079 187.967 71.9565ZM187.137 82.0005L195.637 69.6323H197.081L188.581 82.0005H187.137Z" fill="#6413FD"/>
<circle cx="61.001" cy="60" r="25" stroke="#DBDBF3" stroke-width="10"/>
<path d="M63 85.0002C48.6406 85.0002 36 74.9119 36 60.0002C36 45.0886 47.6406 35.0002 62 35.0002" stroke="url(#paint0_linear_771_2166)" stroke-width="10"/>
<defs>
<filter id="filter0_d_771_2166" x="0.400976" y="0.4" width="397.2" height="159.2" filterUnits="userSpaceOnUse" color-interpolation-filters="sRGB">
<feFlood flood-opacity="0" result="BackgroundImageFix"/>
<feColorMatrix in="SourceAlpha" type="matrix" values="0 0 0 0 0 0 0 0 0 0 0 0 0 0 0 0 0 0 127 0" result="hardAlpha"/>
<feOffset dx="20" dy="20"/>
<feGaussianBlur stdDeviation="15.3"/>
<feComposite in2="hardAlpha" operator="out"/>
<feColorMatrix type="matrix" values="0 0 0 0 0.0959689 0 0 0 0 0.281731 0 0 0 0 0.831731 0 0 0 0.1 0"/>
<feBlend mode="normal" in2="BackgroundImageFix" result="effect1_dropShadow_771_2166"/>
<feBlend mode="normal" in="SourceGraphic" in2="effect1_dropShadow_771_2166" result="shape"/>
</filter>
<linearGradient id="paint0_linear_771_2166" x1="36" y1="45.5374" x2="62.6426" y2="46.3806" gradientUnits="userSpaceOnUse">
<stop stop-color="#6E24FB"/>
<stop offset="0.489233" stop-color="#C61EE8"/>
<stop offset="1" stop-color="#FF6948"/>
</linearGradient>
</defs>
</svg>
